<?xml version="1.0" encoding="UTF-8" standalone="no"?>
<!-- Created with Inkscape (http://www.inkscape.org/) -->

<svg
   version="1.1"
   id="svg2"
   xml:space="preserve"
   width="73.146667"
   height="37.799999"
   viewBox="0 0 73.146667 37.799999"
   xmlns="http://www.w3.org/2000/svg"
   xmlns:svg="http://www.w3.org/2000/svg"><defs
     id="defs6" /><g
     id="g8"
     transform="matrix(1.3333333,0,0,-1.3333333,0,37.8)"><g
       id="g10"
       transform="scale(0.1)"><path
         d="M 117.164,70.8672 158.098,0 h 8.64 L 125.801,70.8672 Z M 69.582,168.215 h 9.6211 l 30.5779,-52.934 h -9.625 z m 12.3125,-52.934 -29.6093,51.274 c 1.4414,0.89 3.1562,1.535 5.457,1.66 h 3.1914 l 30.582,-52.934 z m -18.2773,0 -15.2695,26.442 v 16.484 c 0,0.055 0.0195,0.09 0.0195,0.148 l 24.8789,-43.074 z m -15.2695,10.071 v 1.41 l 6.3203,-10.934 c -4.1407,1.137 -6.3203,4.281 -6.3203,9.524 z M 110.359,70.8672 v 58.3518 l -22.5231,38.996 h 9.6368 l 12.8863,-22.317 v 14.954 l -4.25,7.363 h 4.25 v 44.387 h 6.649 L 76.0742,283.469 H 67.4297 L 108.363,212.602 H 98.7344 L 57.8086,283.469 H 49.168 L 90.1016,212.602 H 80.4688 L 48.3477,268.219 V 253.273 L 71.8398,212.602 H 62.207 l -13.8593,23.992 v -14.957 l 5.2187,-9.035 H 21.2461 C 7.89844,212.602 0,201.789 0,188.453 V 95.0508 C 0,81.6914 10.8086,70.8672 24.1523,70.8672 H 48.3477 V 63.5273 L 85.0352,0 h 8.6406 L 52.7422,70.8672 h 9.6289 L 103.305,0 h 8.633 L 71.0117,70.8672 h 9.6172 L 121.559,0 h 8.652 L 89.2734,70.8672 h 9.625 L 139.824,0 h 8.649 l -40.934,70.8672 z m 221.457,54.4378 -31.367,54.3 v 16.661 l 31.367,-54.297 z m -10.07,-10.071 h -2.391 l -18.906,32.739 v 16.656 l 27.52,-47.645 c -1.602,-1.054 -3.582,-1.75 -6.223,-1.75 z m -11.226,0 c -6.672,0 -10.071,3.399 -10.071,10.071 v 7.707 l 10.274,-17.778 z m 21.296,104.934 -36.562,63.301 h -8.633 l 45.195,-78.254 v -16.664 l -54.828,94.918 h -8.633 L 331.816,173.59 v -16.676 l -31.367,54.297 v 1.391 h -0.801 l -40.925,70.867 h -8.641 l 40.934,-70.867 h -9.621 l -40.926,70.867 h -8.653 l 40.934,-70.867 h -9.621 l -40.934,70.867 h -8.64 l 40.933,-70.867 H 252.09 V 90.2422 l 1.101,-1.9141 c 1.145,-3.9258 3.157,-7.4765 5.957,-10.3086 L 304.211,0 h 8.648 l -41.203,71.3398 c 1.496,-0.2929 3.039,-0.4726 4.617,-0.4726 h 5.274 L 322.48,0 h 8.653 l -40.938,70.8672 h 9.629 l 31.992,-55.4063 v 14.961 l -23.359,40.4453 h 9.609 l 13.75,-23.7969 V 62.043 l -5.097,8.8242 h 29.289 c 13.347,0 24.168,10.8242 24.168,24.1836 V 212.602 h -48.36 z M 48.3477,31.8867 66.7695,0 h 8.6368 L 48.3477,46.8477 Z M 494.043,212.602 436.719,113.125 v 99.477 H 388.352 V 70.8906 h 78.406 L 548.594,212.602 Z M 48.3477,0.265625 48.5,0 h 8.6445 L 48.3477,15.2266 Z M 208.492,70.8672 249.418,0 h 8.641 l -40.93,70.8672 z m 18.25,0 L 267.68,0 h 8.644 L 235.395,70.8672 Z M 161.633,120.383 231.152,0 h 8.645 L 170.27,120.383 Z m -5.172,-49.5158 h -2.762 L 194.629,0 h 8.637 l -46.805,81.0469 z m 0,26.8359 L 212.891,0 h 8.636 L 156.461,112.656 Z M 135.426,70.8672 176.363,0 H 185 l -40.934,70.8672 z m 46.785,92.0818 -25.75,44.582 V 192.57 l 17.113,-29.621 z m 23.672,-42.566 h -7.731 l 7.731,-13.379 z m -5.403,42.566 -69.605,120.52 h -8.645 l 69.61,-120.52 z m 5.403,22.27 -56.746,98.25 h -8.645 L 205.883,170.25 Z m 125.933,66.582 -18.293,31.668 h -8.64 l 26.933,-46.637 z m -86.949,-39.199 -40.929,70.867 h -8.657 l 40.93,-70.867 z m -18.273,0 -40.93,70.867 h -8.637 l 40.934,-70.867 z m -20.711,0 h 2.445 l -40.926,70.867 h -8.64 l 47.121,-81.582 z m -70.613,0 -40.9341,70.867 h -8.6406 l 40.9297,-70.867 z m 18.265,0 -40.933,70.867 h -8.641 l 40.934,-70.867 z M 252.09,70.8672 h -7.063 L 285.957,0 h 8.633 l -42.5,73.5859 z m 79.726,212.5308 -0.039,0.071 h -8.632 l 8.671,-15.016 z M 156.461,162.949 h 7.48 l -7.48,12.953 z m 49.422,-72.6052 -17.348,30.0392 h -8.64 l 25.988,-45.0002 v 14.961"
         style="fill:#ffffff;fill-opacity:1;fill-rule:nonzero;stroke:none"
         id="path12" /></g></g></svg>
