<svg xmlns:xlink="http://www.w3.org/1999/xlink" viewBox="0 0 5040 3240" xmlns="http://www.w3.org/2000/svg" version="1.1">
 <metadata>
  <rdf:RDF xmlns:dc="http://purl.org/dc/elements/1.1/" xmlns:cc="http://creativecommons.org/ns#" xmlns:rdf="http://www.w3.org/1999/02/22-rdf-syntax-ns#">
   <cc:Work>
    <dc:type rdf:resource="http://purl.org/dc/dcmitype/StillImage"/>
    <dc:date>2024-04-15T17:48:46.648133</dc:date>
    <dc:format>image/svg+xml</dc:format>
    <dc:creator>
     <cc:Agent>
      <dc:title>Matplotlib v3.8.2, https://matplotlib.org/</dc:title>
     </cc:Agent>
    </dc:creator>
   </cc:Work>
  </rdf:RDF>
 </metadata>
 <defs>
  <style type="text/css">*{stroke-linejoin: round; stroke-linecap: butt}</style>
 </defs>
 <g id="figure_1">
  <g id="patch_1">
   <path d="M 0 3240 
L 5040 3240 
L 5040 0 
L 0 0 
z
" style="fill: #ffffff"/>
  </g>
  <g id="axes_1">
   <g id="patch_2">
    <path d="M 630 2883.6 
L 1778.823529 2883.6 
L 1778.823529 388.8 
L 630 388.8 
z
" style="fill: #ffffff"/>
   </g>
   <g id="PolyCollection_1">
    <defs>
     <path id="m643ae5ebba" d="M 682.219251 -358.642394 
L 682.219251 -356.4 
L 687.467417 -356.4 
L 692.715583 -356.4 
L 697.963749 -356.4 
L 703.211915 -356.4 
L 708.460081 -356.4 
L 713.708247 -356.4 
L 718.956413 -356.4 
L 724.204579 -356.4 
L 729.452745 -356.4 
L 734.700911 -356.4 
L 739.949077 -356.4 
L 745.197243 -356.4 
L 750.445409 -356.4 
L 755.693575 -356.4 
L 760.941741 -356.4 
L 766.189907 -356.4 
L 771.438073 -356.4 
L 776.686239 -356.4 
L 781.934405 -356.4 
L 787.182571 -356.4 
L 792.430737 -356.4 
L 797.678903 -356.4 
L 802.927068 -356.4 
L 808.175234 -356.4 
L 813.4234 -356.4 
L 818.671566 -356.4 
L 823.919732 -356.4 
L 829.167898 -356.4 
L 834.416064 -356.4 
L 839.66423 -356.4 
L 844.912396 -356.4 
L 850.160562 -356.4 
L 855.408728 -356.4 
L 860.656894 -356.4 
L 865.90506 -356.4 
L 871.153226 -356.4 
L 876.401392 -356.4 
L 881.649558 -356.4 
L 886.897724 -356.4 
L 892.14589 -356.4 
L 897.394056 -356.4 
L 902.642222 -356.4 
L 907.890388 -356.4 
L 913.138554 -356.4 
L 918.38672 -356.4 
L 923.634886 -356.4 
L 928.883052 -356.4 
L 934.131218 -356.4 
L 939.379384 -356.4 
L 944.62755 -356.4 
L 949.875715 -356.4 
L 955.123881 -356.4 
L 960.372047 -356.4 
L 965.620213 -356.4 
L 970.868379 -356.4 
L 976.116545 -356.4 
L 981.364711 -356.4 
L 986.612877 -356.4 
L 991.861043 -356.4 
L 997.109209 -356.4 
L 1002.357375 -356.4 
L 1007.605541 -356.4 
L 1012.853707 -356.4 
L 1018.101873 -356.4 
L 1023.350039 -356.4 
L 1028.598205 -356.4 
L 1033.846371 -356.4 
L 1039.094537 -356.4 
L 1044.342703 -356.4 
L 1049.590869 -356.4 
L 1054.839035 -356.4 
L 1060.087201 -356.4 
L 1065.335367 -356.4 
L 1070.583533 -356.4 
L 1075.831699 -356.4 
L 1081.079865 -356.4 
L 1086.328031 -356.4 
L 1091.576196 -356.4 
L 1096.824362 -356.4 
L 1102.072528 -356.4 
L 1107.320694 -356.4 
L 1112.56886 -356.4 
L 1117.817026 -356.4 
L 1123.065192 -356.4 
L 1128.313358 -356.4 
L 1133.561524 -356.4 
L 1138.80969 -356.4 
L 1144.057856 -356.4 
L 1149.306022 -356.4 
L 1154.554188 -356.4 
L 1159.802354 -356.4 
L 1165.05052 -356.4 
L 1170.298686 -356.4 
L 1175.546852 -356.4 
L 1180.795018 -356.4 
L 1186.043184 -356.4 
L 1191.29135 -356.4 
L 1196.539516 -356.4 
L 1201.787682 -356.4 
L 1207.035848 -356.4 
L 1212.284014 -356.4 
L 1217.53218 -356.4 
L 1222.780346 -356.4 
L 1228.028512 -356.4 
L 1233.276678 -356.4 
L 1238.524843 -356.4 
L 1243.773009 -356.4 
L 1249.021175 -356.4 
L 1254.269341 -356.4 
L 1259.517507 -356.4 
L 1264.765673 -356.4 
L 1270.013839 -356.4 
L 1275.262005 -356.4 
L 1280.510171 -356.4 
L 1285.758337 -356.4 
L 1291.006503 -356.4 
L 1296.254669 -356.4 
L 1301.502835 -356.4 
L 1306.751001 -356.4 
L 1311.999167 -356.4 
L 1317.247333 -356.4 
L 1322.495499 -356.4 
L 1327.743665 -356.4 
L 1332.991831 -356.4 
L 1338.239997 -356.4 
L 1343.488163 -356.4 
L 1348.736329 -356.4 
L 1353.984495 -356.4 
L 1359.232661 -356.4 
L 1364.480827 -356.4 
L 1369.728993 -356.4 
L 1374.977159 -356.4 
L 1380.225324 -356.4 
L 1385.47349 -356.4 
L 1390.721656 -356.4 
L 1395.969822 -356.4 
L 1401.217988 -356.4 
L 1406.466154 -356.4 
L 1411.71432 -356.4 
L 1416.962486 -356.4 
L 1422.210652 -356.4 
L 1427.458818 -356.4 
L 1432.706984 -356.4 
L 1437.95515 -356.4 
L 1443.203316 -356.4 
L 1448.451482 -356.4 
L 1453.699648 -356.4 
L 1458.947814 -356.4 
L 1464.19598 -356.4 
L 1469.444146 -356.4 
L 1474.692312 -356.4 
L 1479.940478 -356.4 
L 1485.188644 -356.4 
L 1490.43681 -356.4 
L 1495.684976 -356.4 
L 1500.933142 -356.4 
L 1506.181308 -356.4 
L 1511.429474 -356.4 
L 1516.67764 -356.4 
L 1521.925805 -356.4 
L 1527.173971 -356.4 
L 1532.422137 -356.4 
L 1537.670303 -356.4 
L 1542.918469 -356.4 
L 1548.166635 -356.4 
L 1553.414801 -356.4 
L 1558.662967 -356.4 
L 1563.911133 -356.4 
L 1569.159299 -356.4 
L 1574.407465 -356.4 
L 1579.655631 -356.4 
L 1584.903797 -356.4 
L 1590.151963 -356.4 
L 1595.400129 -356.4 
L 1600.648295 -356.4 
L 1605.896461 -356.4 
L 1611.144627 -356.4 
L 1616.392793 -356.4 
L 1621.640959 -356.4 
L 1626.889125 -356.4 
L 1632.137291 -356.4 
L 1637.385457 -356.4 
L 1642.633623 -356.4 
L 1647.881789 -356.4 
L 1653.129955 -356.4 
L 1658.378121 -356.4 
L 1663.626287 -356.4 
L 1668.874452 -356.4 
L 1674.122618 -356.4 
L 1679.370784 -356.4 
L 1684.61895 -356.4 
L 1689.867116 -356.4 
L 1695.115282 -356.4 
L 1700.363448 -356.4 
L 1705.611614 -356.4 
L 1710.85978 -356.4 
L 1716.107946 -356.4 
L 1721.356112 -356.4 
L 1726.604278 -356.4 
L 1726.604278 -357.422106 
L 1726.604278 -357.422106 
L 1721.356112 -357.926474 
L 1716.107946 -358.645273 
L 1710.85978 -359.652766 
L 1705.611614 -361.041504 
L 1700.363448 -362.923908 
L 1695.115282 -365.432806 
L 1689.867116 -368.720504 
L 1684.61895 -372.955903 
L 1679.370784 -378.319297 
L 1674.122618 -384.994588 
L 1668.874452 -393.158906 
L 1663.626287 -402.9699 
L 1658.378121 -414.551317 
L 1653.129955 -427.977857 
L 1647.881789 -443.260579 
L 1642.633623 -460.334397 
L 1637.385457 -479.04924 
L 1632.137291 -499.166377 
L 1626.889125 -520.361035 
L 1621.640959 -542.23197 
L 1616.392793 -564.317941 
L 1611.144627 -586.120303 
L 1605.896461 -607.130199 
L 1600.648295 -626.858221 
L 1595.400129 -644.864011 
L 1590.151963 -660.783167 
L 1584.903797 -674.348998 
L 1579.655631 -685.407188 
L 1574.407465 -693.922119 
L 1569.159299 -699.974511 
L 1563.911133 -703.750882 
L 1558.662967 -705.52615 
L 1553.414801 -705.641323 
L 1548.166635 -704.47854 
L 1542.918469 -702.43584 
L 1537.670303 -699.903803 
L 1532.422137 -697.245838 
L 1527.173971 -694.783286 
L 1521.925805 -692.785939 
L 1516.67764 -691.467935 
L 1511.429474 -690.988522 
L 1506.181308 -691.456789 
L 1500.933142 -692.939271 
L 1495.684976 -695.469273 
L 1490.43681 -699.056859 
L 1485.188644 -703.698643 
L 1479.940478 -709.386751 
L 1474.692312 -716.116631 
L 1469.444146 -723.893588 
L 1464.19598 -732.738149 
L 1458.947814 -742.690456 
L 1453.699648 -753.813923 
L 1448.451482 -766.198348 
L 1443.203316 -779.962566 
L 1437.95515 -795.25655 
L 1432.706984 -812.262745 
L 1427.458818 -831.196222 
L 1422.210652 -852.303144 
L 1416.962486 -875.856998 
L 1411.71432 -902.152035 
L 1406.466154 -931.493482 
L 1401.217988 -964.184287 
L 1395.969822 -1000.508374 
L 1390.721656 -1040.710763 
L 1385.47349 -1084.975213 
L 1380.225324 -1133.400451 
L 1374.977159 -1185.976388 
L 1369.728993 -1242.562002 
L 1364.480827 -1302.866739 
L 1359.232661 -1366.437315 
L 1353.984495 -1432.651641 
L 1348.736329 -1500.72123 
L 1343.488163 -1569.702946 
L 1338.239997 -1638.520238 
L 1332.991831 -1705.993268 
L 1327.743665 -1770.876595 
L 1322.495499 -1831.902396 
L 1317.247333 -1887.826761 
L 1311.999167 -1937.476345 
L 1306.751001 -1979.792721 
L 1301.502835 -2013.872056 
L 1296.254669 -2038.998275 
L 1291.006503 -2054.668451 
L 1285.758337 -2060.609868 
L 1280.510171 -2056.788716 
L 1275.262005 -2043.410838 
L 1270.013839 -2020.915132 
L 1264.765673 -1989.960294 
L 1259.517507 -1951.405439 
L 1254.269341 -1906.285029 
L 1249.021175 -1855.77838 
L 1243.773009 -1801.174038 
L 1238.524843 -1743.829481 
L 1233.276678 -1685.126957 
L 1228.028512 -1626.426751 
L 1222.780346 -1569.019747 
L 1217.53218 -1514.081609 
L 1212.284014 -1462.631214 
L 1207.035848 -1415.49602 
L 1201.787682 -1373.286702 
L 1196.539516 -1336.382823 
L 1191.29135 -1304.930367 
L 1186.043184 -1278.85101 
L 1180.795018 -1257.861965 
L 1175.546852 -1241.504417 
L 1170.298686 -1229.178007 
L 1165.05052 -1220.178603 
L 1159.802354 -1213.736715 
L 1154.554188 -1209.054335 
L 1149.306022 -1205.338573 
L 1144.057856 -1201.831115 
L 1138.80969 -1197.833118 
L 1133.561524 -1192.725585 
L 1128.313358 -1185.985484 
L 1123.065192 -1177.19791 
L 1117.817026 -1166.064442 
L 1112.56886 -1152.40768 
L 1107.320694 -1136.171762 
L 1102.072528 -1117.418585 
L 1096.824362 -1096.31954 
L 1091.576196 -1073.142816 
L 1086.328031 -1048.236629 
L 1081.079865 -1022.009186 
L 1075.831699 -994.906527 
L 1070.583533 -967.389651 
L 1065.335367 -939.912464 
L 1060.087201 -912.901949 
L 1054.839035 -886.741753 
L 1049.590869 -861.759939 
L 1044.342703 -838.221251 
L 1039.094537 -816.323765 
L 1033.846371 -796.199428 
L 1028.598205 -777.917769 
L 1023.350039 -761.491899 
L 1018.101873 -746.885982 
L 1012.853707 -734.023434 
L 1007.605541 -722.795298 
L 1002.357375 -713.068422 
L 997.109209 -704.693238 
L 991.861043 -697.51107 
L 986.612877 -691.360938 
L 981.364711 -686.08589 
L 976.116545 -681.538827 
L 970.868379 -677.587786 
L 965.620213 -674.120568 
L 960.372047 -671.048603 
L 955.123881 -668.3099 
L 949.875715 -665.870949 
L 944.62755 -663.72747 
L 939.379384 -661.903916 
L 934.131218 -660.451679 
L 928.883052 -659.445973 
L 923.634886 -658.981366 
L 918.38672 -659.165965 
L 913.138554 -660.114248 
L 907.890388 -661.938555 
L 902.642222 -664.739321 
L 897.394056 -668.594192 
L 892.14589 -673.546329 
L 886.897724 -679.592393 
L 881.649558 -686.670928 
L 876.401392 -694.652121 
L 871.153226 -703.330129 
L 865.90506 -712.419266 
L 860.656894 -721.555353 
L 855.408728 -730.30332 
L 850.160562 -738.171703 
L 844.912396 -744.634082 
L 839.66423 -749.156722 
L 834.416064 -751.230823 
L 829.167898 -750.40703 
L 823.919732 -746.329227 
L 818.671566 -738.764395 
L 813.4234 -727.625365 
L 808.175234 -712.983832 
L 802.927068 -695.071895 
L 797.678903 -674.271531 
L 792.430737 -651.09269 
L 787.182571 -626.141945 
L 781.934405 -600.08461 
L 776.686239 -573.60388 
L 771.438073 -547.360722 
L 766.189907 -521.958 
L 760.941741 -497.911631 
L 755.693575 -475.630646 
L 750.445409 -455.406936 
L 745.197243 -437.414421 
L 739.949077 -421.716478 
L 734.700911 -408.2798 
L 729.452745 -396.99253 
L 724.204579 -387.684446 
L 718.956413 -380.147174 
L 713.708247 -374.152802 
L 708.460081 -369.469746 
L 703.211915 -365.87522 
L 697.963749 -363.164139 
L 692.715583 -361.154646 
L 687.467417 -359.69071 
L 682.219251 -358.642394 
z
" style="stroke: #1f77b4; stroke-width: 3"/>
    </defs>
    <g clip-path="url(#pe0a77ac161)">
     <use xlink:href="#m643ae5ebba" x="0" y="3240" style="fill: #1f77b4; fill-opacity: 0.25; stroke: #1f77b4; stroke-width: 3"/>
    </g>
   </g>
   <g id="matplotlib.axis_1">
    <g id="xtick_1">
     <g id="line2d_1">
      <defs>
       <path id="md347c8a744" d="M 0 0 
L 0 3.5 
" style="stroke: #000000; stroke-width: 0.8"/>
      </defs>
      <g>
       <use xlink:href="#md347c8a744" x="803.934394" y="2883.6" style="stroke: #000000; stroke-width: 0.8"/>
      </g>
     </g>
     <g id="text_1">
      <!-- −1.0 -->
      <g transform="translate(752.940488 2922.513437) scale(0.42 -0.42)">
       <defs>
        <path id="DejaVuSans-2212" d="M 678 2272 
L 4684 2272 
L 4684 1741 
L 678 1741 
L 678 2272 
z
" transform="scale(0.015625)"/>
        <path id="DejaVuSans-31" d="M 794 531 
L 1825 531 
L 1825 4091 
L 703 3866 
L 703 4441 
L 1819 4666 
L 2450 4666 
L 2450 531 
L 3481 531 
L 3481 0 
L 794 0 
L 794 531 
z
" transform="scale(0.015625)"/>
        <path id="DejaVuSans-2e" d="M 684 794 
L 1344 794 
L 1344 0 
L 684 0 
L 684 794 
z
" transform="scale(0.015625)"/>
        <path id="DejaVuSans-30" d="M 2034 4250 
Q 1547 4250 1301 3770 
Q 1056 3291 1056 2328 
Q 1056 1369 1301 889 
Q 1547 409 2034 409 
Q 2525 409 2770 889 
Q 3016 1369 3016 2328 
Q 3016 3291 2770 3770 
Q 2525 4250 2034 4250 
z
M 2034 4750 
Q 2819 4750 3233 4129 
Q 3647 3509 3647 2328 
Q 3647 1150 3233 529 
Q 2819 -91 2034 -91 
Q 1250 -91 836 529 
Q 422 1150 422 2328 
Q 422 3509 836 4129 
Q 1250 4750 2034 4750 
z
" transform="scale(0.015625)"/>
       </defs>
       <use xlink:href="#DejaVuSans-2212"/>
       <use xlink:href="#DejaVuSans-31" x="83.789062"/>
       <use xlink:href="#DejaVuSans-2e" x="147.412109"/>
       <use xlink:href="#DejaVuSans-30" x="179.199219"/>
      </g>
     </g>
    </g>
    <g id="xtick_2">
     <g id="line2d_2">
      <g>
       <use xlink:href="#md347c8a744" x="1004.438323" y="2883.6" style="stroke: #000000; stroke-width: 0.8"/>
      </g>
     </g>
     <g id="text_2">
      <!-- −0.5 -->
      <g transform="translate(953.444417 2922.513437) scale(0.42 -0.42)">
       <defs>
        <path id="DejaVuSans-35" d="M 691 4666 
L 3169 4666 
L 3169 4134 
L 1269 4134 
L 1269 2991 
Q 1406 3038 1543 3061 
Q 1681 3084 1819 3084 
Q 2600 3084 3056 2656 
Q 3513 2228 3513 1497 
Q 3513 744 3044 326 
Q 2575 -91 1722 -91 
Q 1428 -91 1123 -41 
Q 819 9 494 109 
L 494 744 
Q 775 591 1075 516 
Q 1375 441 1709 441 
Q 2250 441 2565 725 
Q 2881 1009 2881 1497 
Q 2881 1984 2565 2268 
Q 2250 2553 1709 2553 
Q 1456 2553 1204 2497 
Q 953 2441 691 2322 
L 691 4666 
z
" transform="scale(0.015625)"/>
       </defs>
       <use xlink:href="#DejaVuSans-2212"/>
       <use xlink:href="#DejaVuSans-30" x="83.789062"/>
       <use xlink:href="#DejaVuSans-2e" x="147.412109"/>
       <use xlink:href="#DejaVuSans-35" x="179.199219"/>
      </g>
     </g>
    </g>
    <g id="xtick_3">
     <g id="line2d_3">
      <g>
       <use xlink:href="#md347c8a744" x="1204.942252" y="2883.6" style="stroke: #000000; stroke-width: 0.8"/>
      </g>
     </g>
     <g id="text_3">
      <!-- 0.0 -->
      <g transform="translate(1171.545689 2922.513437) scale(0.42 -0.42)">
       <use xlink:href="#DejaVuSans-30"/>
       <use xlink:href="#DejaVuSans-2e" x="63.623047"/>
       <use xlink:href="#DejaVuSans-30" x="95.410156"/>
      </g>
     </g>
    </g>
    <g id="xtick_4">
     <g id="line2d_4">
      <g>
       <use xlink:href="#md347c8a744" x="1405.44618" y="2883.6" style="stroke: #000000; stroke-width: 0.8"/>
      </g>
     </g>
     <g id="text_4">
      <!-- 0.5 -->
      <g transform="translate(1372.049618 2922.513437) scale(0.42 -0.42)">
       <use xlink:href="#DejaVuSans-30"/>
       <use xlink:href="#DejaVuSans-2e" x="63.623047"/>
       <use xlink:href="#DejaVuSans-35" x="95.410156"/>
      </g>
     </g>
    </g>
    <g id="xtick_5">
     <g id="line2d_5">
      <g>
       <use xlink:href="#md347c8a744" x="1605.950109" y="2883.6" style="stroke: #000000; stroke-width: 0.8"/>
      </g>
     </g>
     <g id="text_5">
      <!-- 1.0 -->
      <g transform="translate(1572.553546 2922.513437) scale(0.42 -0.42)">
       <use xlink:href="#DejaVuSans-31"/>
       <use xlink:href="#DejaVuSans-2e" x="63.623047"/>
       <use xlink:href="#DejaVuSans-30" x="95.410156"/>
      </g>
     </g>
    </g>
   </g>
   <g id="matplotlib.axis_2">
    <g id="ytick_1">
     <g id="line2d_6">
      <defs>
       <path id="m1ec1f9cf3e" d="M 0 0 
L -3.5 0 
" style="stroke: #000000; stroke-width: 0.8"/>
      </defs>
      <g>
       <use xlink:href="#m1ec1f9cf3e" x="630" y="2883.6" style="stroke: #000000; stroke-width: 0.8"/>
      </g>
     </g>
     <g id="text_6">
      <!-- 0.0 -->
      <g transform="translate(556.206875 2899.556719) scale(0.42 -0.42)">
       <use xlink:href="#DejaVuSans-30"/>
       <use xlink:href="#DejaVuSans-2e" x="63.623047"/>
       <use xlink:href="#DejaVuSans-30" x="95.410156"/>
      </g>
     </g>
    </g>
    <g id="ytick_2">
     <g id="line2d_7">
      <g>
       <use xlink:href="#m1ec1f9cf3e" x="630" y="2602.547065" style="stroke: #000000; stroke-width: 0.8"/>
      </g>
     </g>
     <g id="text_7">
      <!-- 0.2 -->
      <g transform="translate(556.206875 2618.503784) scale(0.42 -0.42)">
       <defs>
        <path id="DejaVuSans-32" d="M 1228 531 
L 3431 531 
L 3431 0 
L 469 0 
L 469 531 
Q 828 903 1448 1529 
Q 2069 2156 2228 2338 
Q 2531 2678 2651 2914 
Q 2772 3150 2772 3378 
Q 2772 3750 2511 3984 
Q 2250 4219 1831 4219 
Q 1534 4219 1204 4116 
Q 875 4013 500 3803 
L 500 4441 
Q 881 4594 1212 4672 
Q 1544 4750 1819 4750 
Q 2544 4750 2975 4387 
Q 3406 4025 3406 3419 
Q 3406 3131 3298 2873 
Q 3191 2616 2906 2266 
Q 2828 2175 2409 1742 
Q 1991 1309 1228 531 
z
" transform="scale(0.015625)"/>
       </defs>
       <use xlink:href="#DejaVuSans-30"/>
       <use xlink:href="#DejaVuSans-2e" x="63.623047"/>
       <use xlink:href="#DejaVuSans-32" x="95.410156"/>
      </g>
     </g>
    </g>
    <g id="ytick_3">
     <g id="line2d_8">
      <g>
       <use xlink:href="#m1ec1f9cf3e" x="630" y="2321.494131" style="stroke: #000000; stroke-width: 0.8"/>
      </g>
     </g>
     <g id="text_8">
      <!-- 0.4 -->
      <g transform="translate(556.206875 2337.45085) scale(0.42 -0.42)">
       <defs>
        <path id="DejaVuSans-34" d="M 2419 4116 
L 825 1625 
L 2419 1625 
L 2419 4116 
z
M 2253 4666 
L 3047 4666 
L 3047 1625 
L 3713 1625 
L 3713 1100 
L 3047 1100 
L 3047 0 
L 2419 0 
L 2419 1100 
L 313 1100 
L 313 1709 
L 2253 4666 
z
" transform="scale(0.015625)"/>
       </defs>
       <use xlink:href="#DejaVuSans-30"/>
       <use xlink:href="#DejaVuSans-2e" x="63.623047"/>
       <use xlink:href="#DejaVuSans-34" x="95.410156"/>
      </g>
     </g>
    </g>
    <g id="ytick_4">
     <g id="line2d_9">
      <g>
       <use xlink:href="#m1ec1f9cf3e" x="630" y="2040.441196" style="stroke: #000000; stroke-width: 0.8"/>
      </g>
     </g>
     <g id="text_9">
      <!-- 0.6 -->
      <g transform="translate(556.206875 2056.397915) scale(0.42 -0.42)">
       <defs>
        <path id="DejaVuSans-36" d="M 2113 2584 
Q 1688 2584 1439 2293 
Q 1191 2003 1191 1497 
Q 1191 994 1439 701 
Q 1688 409 2113 409 
Q 2538 409 2786 701 
Q 3034 994 3034 1497 
Q 3034 2003 2786 2293 
Q 2538 2584 2113 2584 
z
M 3366 4563 
L 3366 3988 
Q 3128 4100 2886 4159 
Q 2644 4219 2406 4219 
Q 1781 4219 1451 3797 
Q 1122 3375 1075 2522 
Q 1259 2794 1537 2939 
Q 1816 3084 2150 3084 
Q 2853 3084 3261 2657 
Q 3669 2231 3669 1497 
Q 3669 778 3244 343 
Q 2819 -91 2113 -91 
Q 1303 -91 875 529 
Q 447 1150 447 2328 
Q 447 3434 972 4092 
Q 1497 4750 2381 4750 
Q 2619 4750 2861 4703 
Q 3103 4656 3366 4563 
z
" transform="scale(0.015625)"/>
       </defs>
       <use xlink:href="#DejaVuSans-30"/>
       <use xlink:href="#DejaVuSans-2e" x="63.623047"/>
       <use xlink:href="#DejaVuSans-36" x="95.410156"/>
      </g>
     </g>
    </g>
    <g id="ytick_5">
     <g id="line2d_10">
      <g>
       <use xlink:href="#m1ec1f9cf3e" x="630" y="1759.388262" style="stroke: #000000; stroke-width: 0.8"/>
      </g>
     </g>
     <g id="text_10">
      <!-- 0.8 -->
      <g transform="translate(556.206875 1775.344981) scale(0.42 -0.42)">
       <defs>
        <path id="DejaVuSans-38" d="M 2034 2216 
Q 1584 2216 1326 1975 
Q 1069 1734 1069 1313 
Q 1069 891 1326 650 
Q 1584 409 2034 409 
Q 2484 409 2743 651 
Q 3003 894 3003 1313 
Q 3003 1734 2745 1975 
Q 2488 2216 2034 2216 
z
M 1403 2484 
Q 997 2584 770 2862 
Q 544 3141 544 3541 
Q 544 4100 942 4425 
Q 1341 4750 2034 4750 
Q 2731 4750 3128 4425 
Q 3525 4100 3525 3541 
Q 3525 3141 3298 2862 
Q 3072 2584 2669 2484 
Q 3125 2378 3379 2068 
Q 3634 1759 3634 1313 
Q 3634 634 3220 271 
Q 2806 -91 2034 -91 
Q 1263 -91 848 271 
Q 434 634 434 1313 
Q 434 1759 690 2068 
Q 947 2378 1403 2484 
z
M 1172 3481 
Q 1172 3119 1398 2916 
Q 1625 2713 2034 2713 
Q 2441 2713 2670 2916 
Q 2900 3119 2900 3481 
Q 2900 3844 2670 4047 
Q 2441 4250 2034 4250 
Q 1625 4250 1398 4047 
Q 1172 3844 1172 3481 
z
" transform="scale(0.015625)"/>
       </defs>
       <use xlink:href="#DejaVuSans-30"/>
       <use xlink:href="#DejaVuSans-2e" x="63.623047"/>
       <use xlink:href="#DejaVuSans-38" x="95.410156"/>
      </g>
     </g>
    </g>
    <g id="ytick_6">
     <g id="line2d_11">
      <g>
       <use xlink:href="#m1ec1f9cf3e" x="630" y="1478.335327" style="stroke: #000000; stroke-width: 0.8"/>
      </g>
     </g>
     <g id="text_11">
      <!-- 1.0 -->
      <g transform="translate(556.206875 1494.292046) scale(0.42 -0.42)">
       <use xlink:href="#DejaVuSans-31"/>
       <use xlink:href="#DejaVuSans-2e" x="63.623047"/>
       <use xlink:href="#DejaVuSans-30" x="95.410156"/>
      </g>
     </g>
    </g>
    <g id="ytick_7">
     <g id="line2d_12">
      <g>
       <use xlink:href="#m1ec1f9cf3e" x="630" y="1197.282393" style="stroke: #000000; stroke-width: 0.8"/>
      </g>
     </g>
     <g id="text_12">
      <!-- 1.2 -->
      <g transform="translate(556.206875 1213.239112) scale(0.42 -0.42)">
       <use xlink:href="#DejaVuSans-31"/>
       <use xlink:href="#DejaVuSans-2e" x="63.623047"/>
       <use xlink:href="#DejaVuSans-32" x="95.410156"/>
      </g>
     </g>
    </g>
    <g id="ytick_8">
     <g id="line2d_13">
      <g>
       <use xlink:href="#m1ec1f9cf3e" x="630" y="916.229458" style="stroke: #000000; stroke-width: 0.8"/>
      </g>
     </g>
     <g id="text_13">
      <!-- 1.4 -->
      <g transform="translate(556.206875 932.186177) scale(0.42 -0.42)">
       <use xlink:href="#DejaVuSans-31"/>
       <use xlink:href="#DejaVuSans-2e" x="63.623047"/>
       <use xlink:href="#DejaVuSans-34" x="95.410156"/>
      </g>
     </g>
    </g>
    <g id="ytick_9">
     <g id="line2d_14">
      <g>
       <use xlink:href="#m1ec1f9cf3e" x="630" y="635.176524" style="stroke: #000000; stroke-width: 0.8"/>
      </g>
     </g>
     <g id="text_14">
      <!-- 1.6 -->
      <g transform="translate(556.206875 651.133242) scale(0.42 -0.42)">
       <use xlink:href="#DejaVuSans-31"/>
       <use xlink:href="#DejaVuSans-2e" x="63.623047"/>
       <use xlink:href="#DejaVuSans-36" x="95.410156"/>
      </g>
     </g>
    </g>
   </g>
   <g id="line2d_15">
    <path d="M 742.353142 2881.454732 
L 747.003112 2879.556044 
L 751.653082 2876.311398 
L 756.303052 2871.038263 
L 760.953022 2862.894222 
L 765.602992 2850.951947 
L 770.252962 2834.343962 
L 774.902932 2812.471411 
L 779.552902 2785.243612 
L 784.202872 2753.28736 
L 788.852842 2718.049681 
L 793.502812 2681.727541 
L 798.152782 2646.997903 
L 802.802752 2616.583361 
L 807.452722 2592.751181 
L 812.102692 2576.88018 
L 816.752662 2569.221069 
L 821.402632 2568.919892 
L 826.052602 2574.290884 
L 830.702572 2583.247 
L 840.002512 2604.187197 
L 844.652482 2613.505221 
L 849.302452 2621.25488 
L 853.952422 2627.437885 
L 858.602392 2632.326726 
L 863.252362 2636.292727 
L 867.902332 2639.68434 
L 872.552302 2642.761036 
L 877.202272 2645.667938 
L 881.852242 2648.432509 
L 886.502212 2650.972524 
L 891.152182 2653.114707 
L 895.802152 2654.627981 
L 900.452122 2655.271918 
L 905.102092 2654.852769 
L 909.752062 2653.272359 
L 914.402032 2650.553926 
L 919.052002 2646.834953 
L 923.701972 2642.327835 
L 928.351942 2637.260286 
L 933.001912 2631.814591 
L 937.651882 2626.085683 
L 942.301852 2620.072532 
L 946.951822 2613.707249 
L 951.601792 2606.914317 
L 956.251762 2599.681679 
L 970.201672 2577.133504 
L 974.851642 2570.478497 
L 979.501612 2564.833433 
L 984.151582 2560.31704 
L 988.801552 2556.767989 
L 993.451522 2553.729956 
L 998.101492 2550.514869 
L 1002.751462 2546.333719 
L 1007.401432 2540.464178 
L 1012.051402 2532.413369 
L 1016.701372 2522.035147 
L 1021.351342 2509.572646 
L 1026.001312 2495.614211 
L 1035.301252 2466.485385 
L 1039.951222 2452.842731 
L 1044.601192 2440.361206 
L 1053.901132 2417.639764 
L 1058.551102 2405.494537 
L 1063.201072 2390.943779 
L 1067.851042 2372.466746 
L 1072.501012 2348.803113 
L 1077.150982 2319.216889 
L 1081.800952 2283.667399 
L 1086.450922 2242.847227 
L 1091.100892 2198.081806 
L 1105.050802 2058.200553 
L 1109.700772 2015.631998 
L 1114.350742 1977.34676 
L 1119.000712 1944.082057 
L 1123.650682 1916.153723 
L 1128.300652 1893.49916 
L 1132.950622 1875.741812 
L 1137.600592 1862.276481 
L 1142.250562 1852.377716 
L 1146.900532 1845.325666 
L 1151.550502 1840.528698 
L 1156.200472 1837.607975 
L 1160.850442 1836.405509 
L 1165.500412 1836.889476 
L 1170.150382 1838.957939 
L 1179.450322 1845.52083 
L 1184.100292 1847.198376 
L 1188.750262 1844.647504 
L 1193.400232 1834.749912 
L 1198.050202 1814.270437 
L 1202.700172 1780.459533 
L 1207.350142 1731.69082 
L 1212.000112 1667.95791 
L 1216.650082 1591.052005 
L 1221.300052 1504.303498 
L 1239.899932 1135.873272 
L 1249.199872 964.147166 
L 1258.499812 796.280067 
L 1263.149782 715.414183 
L 1267.799752 641.031043 
L 1272.449722 578.223679 
L 1277.099692 532.340363 
L 1281.749662 507.869247 
L 1286.399632 507.6 
L 1291.049602 532.272783 
L 1295.699572 580.72013 
L 1300.349542 650.336752 
L 1304.999512 737.643145 
L 1309.649482 838.752783 
L 1314.299452 949.666785 
L 1323.599392 1185.282716 
L 1328.249362 1302.779295 
L 1332.899332 1416.068348 
L 1337.549302 1523.0926 
L 1342.199272 1622.726356 
L 1346.849242 1714.745741 
L 1351.499212 1799.630512 
L 1356.149182 1878.256554 
L 1360.799152 1951.574941 
L 1365.449122 2020.367465 
L 1370.099092 2085.128566 
L 1374.749062 2146.071939 
L 1379.399032 2203.219958 
L 1384.049002 2256.518327 
L 1388.698972 2305.92709 
L 1393.348942 2351.46249 
L 1397.998912 2393.189823 
L 1402.648882 2431.185747 
L 1407.298852 2465.495587 
L 1411.948822 2496.107947 
L 1416.598792 2522.959337 
L 1421.248762 2545.969895 
L 1425.898732 2565.101153 
L 1430.548702 2580.420347 
L 1435.198672 2592.153632 
L 1439.848642 2600.712734 
L 1444.498612 2606.685262 
L 1449.148582 2610.786962 
L 1453.798552 2613.783204 
L 1458.448522 2616.394966 
L 1463.098492 2619.209339 
L 1467.748462 2622.614419 
L 1472.398432 2626.772698 
L 1477.048402 2631.637113 
L 1481.698372 2637.002859 
L 1490.998312 2648.066273 
L 1495.648282 2653.211716 
L 1500.298252 2657.855129 
L 1504.948222 2661.942964 
L 1509.598192 2665.527706 
L 1514.248162 2668.753171 
L 1523.548102 2675.000755 
L 1528.198072 2678.500073 
L 1532.848042 2682.505349 
L 1537.498012 2687.094344 
L 1542.147982 2692.217821 
L 1556.097892 2708.710534 
L 1560.747862 2713.779314 
L 1565.397832 2718.473609 
L 1570.047802 2722.984212 
L 1574.697772 2727.706466 
L 1579.347742 2733.171992 
L 1583.997712 2739.93387 
L 1588.647682 2748.433526 
L 1593.297652 2758.883971 
L 1597.947622 2771.200236 
L 1602.597592 2784.995057 
L 1611.897532 2814.37551 
L 1616.547502 2828.439902 
L 1621.197472 2841.188367 
L 1625.847442 2852.174693 
L 1630.497412 2861.18464 
L 1635.147382 2868.222076 
L 1639.797352 2873.46063 
L 1644.447322 2877.178886 
L 1649.097292 2879.696442 
L 1653.747262 2881.323021 
L 1658.397232 2882.326115 
L 1663.047202 2882.916685 
L 1667.697172 2883.248686 
L 1667.697172 2883.248686 
" clip-path="url(#pe0a77ac161)" style="fill: none; stroke-dasharray: 11.1,4.8; stroke-dashoffset: 0; stroke: #ff0000; stroke-width: 3"/>
   </g>
   <g id="patch_3">
    <path d="M 630 2883.6 
L 630 388.8 
" style="fill: none; stroke: #000000; stroke-width: 0.8; stroke-linejoin: miter; stroke-linecap: square"/>
   </g>
   <g id="patch_4">
    <path d="M 1778.823529 2883.6 
L 1778.823529 388.8 
" style="fill: none; stroke: #000000; stroke-width: 0.8; stroke-linejoin: miter; stroke-linecap: square"/>
   </g>
   <g id="patch_5">
    <path d="M 630 2883.6 
L 1778.823529 2883.6 
" style="fill: none; stroke: #000000; stroke-width: 0.8; stroke-linejoin: miter; stroke-linecap: square"/>
   </g>
   <g id="patch_6">
    <path d="M 630 388.8 
L 1778.823529 388.8 
" style="fill: none; stroke: #000000; stroke-width: 0.8; stroke-linejoin: miter; stroke-linecap: square"/>
   </g>
   <g id="text_15">
    <g id="patch_7">
     <path d="M 721.905882 666.59875 
L 994.543382 666.59875 
Q 1014.543382 666.59875 1014.543382 646.59875 
L 1014.543382 607.88625 
Q 1014.543382 587.88625 994.543382 587.88625 
L 721.905882 587.88625 
Q 701.905882 587.88625 701.905882 607.88625 
L 701.905882 646.59875 
Q 701.905882 666.59875 721.905882 666.59875 
z
" style="fill: #ff0000; opacity: 0.4; stroke: #000000; stroke-linejoin: miter"/>
    </g>
    <!-- QC-FC% = 94 -->
    <g transform="translate(721.905882 638.28) scale(0.4 -0.4)">
     <defs>
      <path id="DejaVuSans-51" d="M 2522 4238 
Q 1834 4238 1429 3725 
Q 1025 3213 1025 2328 
Q 1025 1447 1429 934 
Q 1834 422 2522 422 
Q 3209 422 3611 934 
Q 4013 1447 4013 2328 
Q 4013 3213 3611 3725 
Q 3209 4238 2522 4238 
z
M 3406 84 
L 4238 -825 
L 3475 -825 
L 2784 -78 
Q 2681 -84 2626 -87 
Q 2572 -91 2522 -91 
Q 1538 -91 948 567 
Q 359 1225 359 2328 
Q 359 3434 948 4092 
Q 1538 4750 2522 4750 
Q 3503 4750 4090 4092 
Q 4678 3434 4678 2328 
Q 4678 1516 4351 937 
Q 4025 359 3406 84 
z
" transform="scale(0.015625)"/>
      <path id="DejaVuSans-43" d="M 4122 4306 
L 4122 3641 
Q 3803 3938 3442 4084 
Q 3081 4231 2675 4231 
Q 1875 4231 1450 3742 
Q 1025 3253 1025 2328 
Q 1025 1406 1450 917 
Q 1875 428 2675 428 
Q 3081 428 3442 575 
Q 3803 722 4122 1019 
L 4122 359 
Q 3791 134 3420 21 
Q 3050 -91 2638 -91 
Q 1578 -91 968 557 
Q 359 1206 359 2328 
Q 359 3453 968 4101 
Q 1578 4750 2638 4750 
Q 3056 4750 3426 4639 
Q 3797 4528 4122 4306 
z
" transform="scale(0.015625)"/>
      <path id="DejaVuSans-2d" d="M 313 2009 
L 1997 2009 
L 1997 1497 
L 313 1497 
L 313 2009 
z
" transform="scale(0.015625)"/>
      <path id="DejaVuSans-46" d="M 628 4666 
L 3309 4666 
L 3309 4134 
L 1259 4134 
L 1259 2759 
L 3109 2759 
L 3109 2228 
L 1259 2228 
L 1259 0 
L 628 0 
L 628 4666 
z
" transform="scale(0.015625)"/>
      <path id="DejaVuSans-25" d="M 4653 2053 
Q 4381 2053 4226 1822 
Q 4072 1591 4072 1178 
Q 4072 772 4226 539 
Q 4381 306 4653 306 
Q 4919 306 5073 539 
Q 5228 772 5228 1178 
Q 5228 1588 5073 1820 
Q 4919 2053 4653 2053 
z
M 4653 2450 
Q 5147 2450 5437 2106 
Q 5728 1763 5728 1178 
Q 5728 594 5436 251 
Q 5144 -91 4653 -91 
Q 4153 -91 3862 251 
Q 3572 594 3572 1178 
Q 3572 1766 3864 2108 
Q 4156 2450 4653 2450 
z
M 1428 4353 
Q 1159 4353 1004 4120 
Q 850 3888 850 3481 
Q 850 3069 1003 2837 
Q 1156 2606 1428 2606 
Q 1700 2606 1854 2837 
Q 2009 3069 2009 3481 
Q 2009 3884 1853 4118 
Q 1697 4353 1428 4353 
z
M 4250 4750 
L 4750 4750 
L 1831 -91 
L 1331 -91 
L 4250 4750 
z
M 1428 4750 
Q 1922 4750 2215 4408 
Q 2509 4066 2509 3481 
Q 2509 2891 2217 2550 
Q 1925 2209 1428 2209 
Q 931 2209 642 2551 
Q 353 2894 353 3481 
Q 353 4063 643 4406 
Q 934 4750 1428 4750 
z
" transform="scale(0.015625)"/>
      <path id="DejaVuSans-20" transform="scale(0.015625)"/>
      <path id="DejaVuSans-3d" d="M 678 2906 
L 4684 2906 
L 4684 2381 
L 678 2381 
L 678 2906 
z
M 678 1631 
L 4684 1631 
L 4684 1100 
L 678 1100 
L 678 1631 
z
" transform="scale(0.015625)"/>
      <path id="DejaVuSans-39" d="M 703 97 
L 703 672 
Q 941 559 1184 500 
Q 1428 441 1663 441 
Q 2288 441 2617 861 
Q 2947 1281 2994 2138 
Q 2813 1869 2534 1725 
Q 2256 1581 1919 1581 
Q 1219 1581 811 2004 
Q 403 2428 403 3163 
Q 403 3881 828 4315 
Q 1253 4750 1959 4750 
Q 2769 4750 3195 4129 
Q 3622 3509 3622 2328 
Q 3622 1225 3098 567 
Q 2575 -91 1691 -91 
Q 1453 -91 1209 -44 
Q 966 3 703 97 
z
M 1959 2075 
Q 2384 2075 2632 2365 
Q 2881 2656 2881 3163 
Q 2881 3666 2632 3958 
Q 2384 4250 1959 4250 
Q 1534 4250 1286 3958 
Q 1038 3666 1038 3163 
Q 1038 2656 1286 2365 
Q 1534 2075 1959 2075 
z
" transform="scale(0.015625)"/>
     </defs>
     <use xlink:href="#DejaVuSans-51"/>
     <use xlink:href="#DejaVuSans-43" x="78.710938"/>
     <use xlink:href="#DejaVuSans-2d" x="148.535156"/>
     <use xlink:href="#DejaVuSans-46" x="184.619141"/>
     <use xlink:href="#DejaVuSans-43" x="242.138672"/>
     <use xlink:href="#DejaVuSans-25" x="311.962891"/>
     <use xlink:href="#DejaVuSans-20" x="406.982422"/>
     <use xlink:href="#DejaVuSans-3d" x="438.769531"/>
     <use xlink:href="#DejaVuSans-20" x="522.558594"/>
     <use xlink:href="#DejaVuSans-39" x="554.345703"/>
     <use xlink:href="#DejaVuSans-34" x="617.96875"/>
    </g>
   </g>
   <g id="text_16">
    <!-- fd_mean -->
    <g transform="translate(1109.30989 378.425625) scale(0.44 -0.44)">
     <defs>
      <path id="DejaVuSans-66" d="M 2375 4863 
L 2375 4384 
L 1825 4384 
Q 1516 4384 1395 4259 
Q 1275 4134 1275 3809 
L 1275 3500 
L 2222 3500 
L 2222 3053 
L 1275 3053 
L 1275 0 
L 697 0 
L 697 3053 
L 147 3053 
L 147 3500 
L 697 3500 
L 697 3744 
Q 697 4328 969 4595 
Q 1241 4863 1831 4863 
L 2375 4863 
z
" transform="scale(0.015625)"/>
      <path id="DejaVuSans-64" d="M 2906 2969 
L 2906 4863 
L 3481 4863 
L 3481 0 
L 2906 0 
L 2906 525 
Q 2725 213 2448 61 
Q 2172 -91 1784 -91 
Q 1150 -91 751 415 
Q 353 922 353 1747 
Q 353 2572 751 3078 
Q 1150 3584 1784 3584 
Q 2172 3584 2448 3432 
Q 2725 3281 2906 2969 
z
M 947 1747 
Q 947 1113 1208 752 
Q 1469 391 1925 391 
Q 2381 391 2643 752 
Q 2906 1113 2906 1747 
Q 2906 2381 2643 2742 
Q 2381 3103 1925 3103 
Q 1469 3103 1208 2742 
Q 947 2381 947 1747 
z
" transform="scale(0.015625)"/>
      <path id="DejaVuSans-5f" d="M 3263 -1063 
L 3263 -1509 
L -63 -1509 
L -63 -1063 
L 3263 -1063 
z
" transform="scale(0.015625)"/>
      <path id="DejaVuSans-6d" d="M 3328 2828 
Q 3544 3216 3844 3400 
Q 4144 3584 4550 3584 
Q 5097 3584 5394 3201 
Q 5691 2819 5691 2113 
L 5691 0 
L 5113 0 
L 5113 2094 
Q 5113 2597 4934 2840 
Q 4756 3084 4391 3084 
Q 3944 3084 3684 2787 
Q 3425 2491 3425 1978 
L 3425 0 
L 2847 0 
L 2847 2094 
Q 2847 2600 2669 2842 
Q 2491 3084 2119 3084 
Q 1678 3084 1418 2786 
Q 1159 2488 1159 1978 
L 1159 0 
L 581 0 
L 581 3500 
L 1159 3500 
L 1159 2956 
Q 1356 3278 1631 3431 
Q 1906 3584 2284 3584 
Q 2666 3584 2933 3390 
Q 3200 3197 3328 2828 
z
" transform="scale(0.015625)"/>
      <path id="DejaVuSans-65" d="M 3597 1894 
L 3597 1613 
L 953 1613 
Q 991 1019 1311 708 
Q 1631 397 2203 397 
Q 2534 397 2845 478 
Q 3156 559 3463 722 
L 3463 178 
Q 3153 47 2828 -22 
Q 2503 -91 2169 -91 
Q 1331 -91 842 396 
Q 353 884 353 1716 
Q 353 2575 817 3079 
Q 1281 3584 2069 3584 
Q 2775 3584 3186 3129 
Q 3597 2675 3597 1894 
z
M 3022 2063 
Q 3016 2534 2758 2815 
Q 2500 3097 2075 3097 
Q 1594 3097 1305 2825 
Q 1016 2553 972 2059 
L 3022 2063 
z
" transform="scale(0.015625)"/>
      <path id="DejaVuSans-61" d="M 2194 1759 
Q 1497 1759 1228 1600 
Q 959 1441 959 1056 
Q 959 750 1161 570 
Q 1363 391 1709 391 
Q 2188 391 2477 730 
Q 2766 1069 2766 1631 
L 2766 1759 
L 2194 1759 
z
M 3341 1997 
L 3341 0 
L 2766 0 
L 2766 531 
Q 2569 213 2275 61 
Q 1981 -91 1556 -91 
Q 1019 -91 701 211 
Q 384 513 384 1019 
Q 384 1609 779 1909 
Q 1175 2209 1959 2209 
L 2766 2209 
L 2766 2266 
Q 2766 2663 2505 2880 
Q 2244 3097 1772 3097 
Q 1472 3097 1187 3025 
Q 903 2953 641 2809 
L 641 3341 
Q 956 3463 1253 3523 
Q 1550 3584 1831 3584 
Q 2591 3584 2966 3190 
Q 3341 2797 3341 1997 
z
" transform="scale(0.015625)"/>
      <path id="DejaVuSans-6e" d="M 3513 2113 
L 3513 0 
L 2938 0 
L 2938 2094 
Q 2938 2591 2744 2837 
Q 2550 3084 2163 3084 
Q 1697 3084 1428 2787 
Q 1159 2491 1159 1978 
L 1159 0 
L 581 0 
L 581 3500 
L 1159 3500 
L 1159 2956 
Q 1366 3272 1645 3428 
Q 1925 3584 2291 3584 
Q 2894 3584 3203 3211 
Q 3513 2838 3513 2113 
z
" transform="scale(0.015625)"/>
     </defs>
     <use xlink:href="#DejaVuSans-66"/>
     <use xlink:href="#DejaVuSans-64" x="35.205078"/>
     <use xlink:href="#DejaVuSans-5f" x="98.681641"/>
     <use xlink:href="#DejaVuSans-6d" x="148.681641"/>
     <use xlink:href="#DejaVuSans-65" x="246.09375"/>
     <use xlink:href="#DejaVuSans-61" x="307.617188"/>
     <use xlink:href="#DejaVuSans-6e" x="368.896484"/>
    </g>
   </g>
  </g>
  <g id="axes_2">
   <g id="patch_8">
    <path d="M 2008.588235 2883.6 
L 3157.411765 2883.6 
L 3157.411765 388.8 
L 2008.588235 388.8 
z
" style="fill: #ffffff"/>
   </g>
   <g id="PolyCollection_2">
    <defs>
     <path id="m0170491bf4" d="M 2060.807487 -358.370189 
L 2060.807487 -356.4 
L 2066.055653 -356.4 
L 2071.303819 -356.4 
L 2076.551985 -356.4 
L 2081.80015 -356.4 
L 2087.048316 -356.4 
L 2092.296482 -356.4 
L 2097.544648 -356.4 
L 2102.792814 -356.4 
L 2108.04098 -356.4 
L 2113.289146 -356.4 
L 2118.537312 -356.4 
L 2123.785478 -356.4 
L 2129.033644 -356.4 
L 2134.28181 -356.4 
L 2139.529976 -356.4 
L 2144.778142 -356.4 
L 2150.026308 -356.4 
L 2155.274474 -356.4 
L 2160.52264 -356.4 
L 2165.770806 -356.4 
L 2171.018972 -356.4 
L 2176.267138 -356.4 
L 2181.515304 -356.4 
L 2186.76347 -356.4 
L 2192.011636 -356.4 
L 2197.259802 -356.4 
L 2202.507968 -356.4 
L 2207.756134 -356.4 
L 2213.0043 -356.4 
L 2218.252466 -356.4 
L 2223.500631 -356.4 
L 2228.748797 -356.4 
L 2233.996963 -356.4 
L 2239.245129 -356.4 
L 2244.493295 -356.4 
L 2249.741461 -356.4 
L 2254.989627 -356.4 
L 2260.237793 -356.4 
L 2265.485959 -356.4 
L 2270.734125 -356.4 
L 2275.982291 -356.4 
L 2281.230457 -356.4 
L 2286.478623 -356.4 
L 2291.726789 -356.4 
L 2296.974955 -356.4 
L 2302.223121 -356.4 
L 2307.471287 -356.4 
L 2312.719453 -356.4 
L 2317.967619 -356.4 
L 2323.215785 -356.4 
L 2328.463951 -356.4 
L 2333.712117 -356.4 
L 2338.960283 -356.4 
L 2344.208449 -356.4 
L 2349.456615 -356.4 
L 2354.704781 -356.4 
L 2359.952947 -356.4 
L 2365.201113 -356.4 
L 2370.449278 -356.4 
L 2375.697444 -356.4 
L 2380.94561 -356.4 
L 2386.193776 -356.4 
L 2391.441942 -356.4 
L 2396.690108 -356.4 
L 2401.938274 -356.4 
L 2407.18644 -356.4 
L 2412.434606 -356.4 
L 2417.682772 -356.4 
L 2422.930938 -356.4 
L 2428.179104 -356.4 
L 2433.42727 -356.4 
L 2438.675436 -356.4 
L 2443.923602 -356.4 
L 2449.171768 -356.4 
L 2454.419934 -356.4 
L 2459.6681 -356.4 
L 2464.916266 -356.4 
L 2470.164432 -356.4 
L 2475.412598 -356.4 
L 2480.660764 -356.4 
L 2485.90893 -356.4 
L 2491.157096 -356.4 
L 2496.405262 -356.4 
L 2501.653428 -356.4 
L 2506.901594 -356.4 
L 2512.149759 -356.4 
L 2517.397925 -356.4 
L 2522.646091 -356.4 
L 2527.894257 -356.4 
L 2533.142423 -356.4 
L 2538.390589 -356.4 
L 2543.638755 -356.4 
L 2548.886921 -356.4 
L 2554.135087 -356.4 
L 2559.383253 -356.4 
L 2564.631419 -356.4 
L 2569.879585 -356.4 
L 2575.127751 -356.4 
L 2580.375917 -356.4 
L 2585.624083 -356.4 
L 2590.872249 -356.4 
L 2596.120415 -356.4 
L 2601.368581 -356.4 
L 2606.616747 -356.4 
L 2611.864913 -356.4 
L 2617.113079 -356.4 
L 2622.361245 -356.4 
L 2627.609411 -356.4 
L 2632.857577 -356.4 
L 2638.105743 -356.4 
L 2643.353909 -356.4 
L 2648.602075 -356.4 
L 2653.850241 -356.4 
L 2659.098406 -356.4 
L 2664.346572 -356.4 
L 2669.594738 -356.4 
L 2674.842904 -356.4 
L 2680.09107 -356.4 
L 2685.339236 -356.4 
L 2690.587402 -356.4 
L 2695.835568 -356.4 
L 2701.083734 -356.4 
L 2706.3319 -356.4 
L 2711.580066 -356.4 
L 2716.828232 -356.4 
L 2722.076398 -356.4 
L 2727.324564 -356.4 
L 2732.57273 -356.4 
L 2737.820896 -356.4 
L 2743.069062 -356.4 
L 2748.317228 -356.4 
L 2753.565394 -356.4 
L 2758.81356 -356.4 
L 2764.061726 -356.4 
L 2769.309892 -356.4 
L 2774.558058 -356.4 
L 2779.806224 -356.4 
L 2785.05439 -356.4 
L 2790.302556 -356.4 
L 2795.550722 -356.4 
L 2800.798887 -356.4 
L 2806.047053 -356.4 
L 2811.295219 -356.4 
L 2816.543385 -356.4 
L 2821.791551 -356.4 
L 2827.039717 -356.4 
L 2832.287883 -356.4 
L 2837.536049 -356.4 
L 2842.784215 -356.4 
L 2848.032381 -356.4 
L 2853.280547 -356.4 
L 2858.528713 -356.4 
L 2863.776879 -356.4 
L 2869.025045 -356.4 
L 2874.273211 -356.4 
L 2879.521377 -356.4 
L 2884.769543 -356.4 
L 2890.017709 -356.4 
L 2895.265875 -356.4 
L 2900.514041 -356.4 
L 2905.762207 -356.4 
L 2911.010373 -356.4 
L 2916.258539 -356.4 
L 2921.506705 -356.4 
L 2926.754871 -356.4 
L 2932.003037 -356.4 
L 2937.251203 -356.4 
L 2942.499369 -356.4 
L 2947.747534 -356.4 
L 2952.9957 -356.4 
L 2958.243866 -356.4 
L 2963.492032 -356.4 
L 2968.740198 -356.4 
L 2973.988364 -356.4 
L 2979.23653 -356.4 
L 2984.484696 -356.4 
L 2989.732862 -356.4 
L 2994.981028 -356.4 
L 3000.229194 -356.4 
L 3005.47736 -356.4 
L 3010.725526 -356.4 
L 3015.973692 -356.4 
L 3021.221858 -356.4 
L 3026.470024 -356.4 
L 3031.71819 -356.4 
L 3036.966356 -356.4 
L 3042.214522 -356.4 
L 3047.462688 -356.4 
L 3052.710854 -356.4 
L 3057.95902 -356.4 
L 3063.207186 -356.4 
L 3068.455352 -356.4 
L 3073.703518 -356.4 
L 3078.951684 -356.4 
L 3084.19985 -356.4 
L 3089.448015 -356.4 
L 3094.696181 -356.4 
L 3099.944347 -356.4 
L 3105.192513 -356.4 
L 3105.192513 -357.189605 
L 3105.192513 -357.189605 
L 3099.944347 -357.583379 
L 3094.696181 -358.147179 
L 3089.448015 -358.941375 
L 3084.19985 -360.041992 
L 3078.951684 -361.542453 
L 3073.703518 -363.554626 
L 3068.455352 -366.208792 
L 3063.207186 -369.652108 
L 3057.95902 -374.045218 
L 3052.710854 -379.556696 
L 3047.462688 -386.355191 
L 3042.214522 -394.599349 
L 3036.966356 -404.425864 
L 3031.71819 -415.936316 
L 3026.470024 -429.183744 
L 3021.221858 -444.160151 
L 3015.973692 -460.786296 
L 3010.725526 -478.905112 
L 3005.47736 -498.279978 
L 3000.229194 -518.598678 
L 2994.981028 -539.48346 
L 2989.732862 -560.506961 
L 2984.484696 -581.213161 
L 2979.23653 -601.14191 
L 2973.988364 -619.855115 
L 2968.740198 -636.9624 
L 2963.492032 -652.144018 
L 2958.243866 -665.169034 
L 2952.9957 -675.90725 
L 2947.747534 -684.334001 
L 2942.499369 -690.527673 
L 2937.251203 -694.660525 
L 2932.003037 -696.984009 
L 2926.754871 -697.810249 
L 2921.506705 -697.49155 
L 2916.258539 -696.399794 
L 2911.010373 -694.907358 
L 2905.762207 -693.370825 
L 2900.514041 -692.118239 
L 2895.265875 -691.440243 
L 2890.017709 -691.584938 
L 2884.769543 -692.756044 
L 2879.521377 -695.113728 
L 2874.273211 -698.777421 
L 2869.025045 -703.830008 
L 2863.776879 -710.322927 
L 2858.528713 -718.281851 
L 2853.280547 -727.712805 
L 2848.032381 -738.608656 
L 2842.784215 -750.955948 
L 2837.536049 -764.742044 
L 2832.287883 -779.962416 
L 2827.039717 -796.627845 
L 2821.791551 -814.771159 
L 2816.543385 -834.453047 
L 2811.295219 -855.766442 
L 2806.047053 -878.83896 
L 2800.798887 -903.832901 
L 2795.550722 -930.942384 
L 2790.302556 -960.387265 
L 2785.05439 -992.403551 
L 2779.806224 -1027.230144 
L 2774.558058 -1065.091851 
L 2769.309892 -1106.178833 
L 2764.061726 -1150.622905 
L 2758.81356 -1198.471512 
L 2753.565394 -1249.660708 
L 2748.317228 -1303.988967 
L 2743.069062 -1361.094229 
L 2737.820896 -1420.436966 
L 2732.57273 -1481.29226 
L 2727.324564 -1542.753691 
L 2722.076398 -1603.751271 
L 2716.828232 -1663.084593 
L 2711.580066 -1719.47097 
L 2706.3319 -1771.606585 
L 2701.083734 -1818.236925 
L 2695.835568 -1858.231165 
L 2690.587402 -1890.653989 
L 2685.339236 -1914.827856 
L 2680.09107 -1930.379052 
L 2674.842904 -1937.262063 
L 2669.594738 -1935.758867 
L 2664.346572 -1926.452304 
L 2659.098406 -1910.175608 
L 2653.850241 -1887.942939 
L 2648.602075 -1860.868023 
L 2643.353909 -1830.079478 
L 2638.105743 -1796.641699 
L 2632.857577 -1761.489469 
L 2627.609411 -1725.382576 
L 2622.361245 -1688.884129 
L 2617.113079 -1652.363189 
L 2611.864913 -1616.019345 
L 2606.616747 -1579.924215 
L 2601.368581 -1544.073101 
L 2596.120415 -1508.439203 
L 2590.872249 -1473.023049 
L 2585.624083 -1437.891043 
L 2580.375917 -1403.19896 
L 2575.127751 -1369.198527 
L 2569.879585 -1336.227598 
L 2564.631419 -1304.686465 
L 2559.383253 -1275.004362 
L 2554.135087 -1247.601001 
L 2548.886921 -1222.8481 
L 2543.638755 -1201.035287 
L 2538.390589 -1182.343779 
L 2533.142423 -1166.829945 
L 2527.894257 -1154.419513 
L 2522.646091 -1144.911968 
L 2517.397925 -1137.993706 
L 2512.149759 -1133.257877 
L 2506.901594 -1130.228518 
L 2501.653428 -1128.386615 
L 2496.405262 -1127.195977 
L 2491.157096 -1126.127216 
L 2485.90893 -1124.67868 
L 2480.660764 -1122.393656 
L 2475.412598 -1118.873665 
L 2470.164432 -1113.787986 
L 2464.916266 -1106.879842 
L 2459.6681 -1097.969714 
L 2454.419934 -1086.956315 
L 2449.171768 -1073.81561 
L 2443.923602 -1058.598149 
L 2438.675436 -1041.42484 
L 2433.42727 -1022.481143 
L 2428.179104 -1002.009629 
L 2422.930938 -980.300848 
L 2417.682772 -957.682539 
L 2412.434606 -934.507366 
L 2407.18644 -911.139551 
L 2401.938274 -887.940937 
L 2396.690108 -865.257194 
L 2391.441942 -843.404938 
L 2386.193776 -822.660565 
L 2380.94561 -803.251497 
L 2375.697444 -785.350388 
L 2370.449278 -769.072612 
L 2365.201113 -754.4771 
L 2359.952947 -741.570317 
L 2354.704781 -730.312962 
L 2349.456615 -720.628746 
L 2344.208449 -712.414522 
L 2338.960283 -705.550964 
L 2333.712117 -699.913016 
L 2328.463951 -695.379429 
L 2323.215785 -691.840821 
L 2317.967619 -689.205852 
L 2312.719453 -687.405261 
L 2307.471287 -686.393668 
L 2302.223121 -686.14913 
L 2296.974955 -686.670527 
L 2291.726789 -687.972902 
L 2286.478623 -690.080868 
L 2281.230457 -693.020247 
L 2275.982291 -696.808145 
L 2270.734125 -701.441771 
L 2265.485959 -706.886489 
L 2260.237793 -713.063828 
L 2254.989627 -719.840432 
L 2249.741461 -727.019204 
L 2244.493295 -734.33403 
L 2239.245129 -741.449521 
L 2233.996963 -747.966978 
L 2228.748797 -753.437356 
L 2223.500631 -757.381334 
L 2218.252466 -759.315737 
L 2213.0043 -758.784682 
L 2207.756134 -755.392966 
L 2202.507968 -748.83861 
L 2197.259802 -738.941205 
L 2192.011636 -725.662886 
L 2186.76347 -709.119308 
L 2181.515304 -689.579042 
L 2176.267138 -667.450996 
L 2171.018972 -643.260823 
L 2165.770806 -617.618482 
L 2160.52264 -591.180071 
L 2155.274474 -564.607599 
L 2150.026308 -538.5304 
L 2144.778142 -513.511554 
L 2139.529976 -490.021879 
L 2134.28181 -468.423072 
L 2129.033644 -448.960469 
L 2123.785478 -431.764881 
L 2118.537312 -416.862118 
L 2113.289146 -404.188249 
L 2108.04098 -393.608397 
L 2102.792814 -384.936902 
L 2097.544648 -377.956942 
L 2092.296482 -372.438153 
L 2087.048316 -368.151253 
L 2081.80015 -364.879208 
L 2076.551985 -362.424887 
L 2071.303819 -360.615493 
L 2066.055653 -359.304284 
L 2060.807487 -358.370189 
z
" style="stroke: #1f77b4; stroke-width: 3"/>
    </defs>
    <g clip-path="url(#pfd1d23b898)">
     <use xlink:href="#m0170491bf4" x="0" y="3240" style="fill: #1f77b4; fill-opacity: 0.25; stroke: #1f77b4; stroke-width: 3"/>
    </g>
   </g>
   <g id="matplotlib.axis_3">
    <g id="xtick_6">
     <g id="line2d_16">
      <g>
       <use xlink:href="#md347c8a744" x="2180.795806" y="2883.6" style="stroke: #000000; stroke-width: 0.8"/>
      </g>
     </g>
     <g id="text_17">
      <!-- −1.0 -->
      <g transform="translate(2129.8019 2922.513437) scale(0.42 -0.42)">
       <use xlink:href="#DejaVuSans-2212"/>
       <use xlink:href="#DejaVuSans-31" x="83.789062"/>
       <use xlink:href="#DejaVuSans-2e" x="147.412109"/>
       <use xlink:href="#DejaVuSans-30" x="179.199219"/>
      </g>
     </g>
    </g>
    <g id="xtick_7">
     <g id="line2d_17">
      <g>
       <use xlink:href="#md347c8a744" x="2381.976194" y="2883.6" style="stroke: #000000; stroke-width: 0.8"/>
      </g>
     </g>
     <g id="text_18">
      <!-- −0.5 -->
      <g transform="translate(2330.982288 2922.513437) scale(0.42 -0.42)">
       <use xlink:href="#DejaVuSans-2212"/>
       <use xlink:href="#DejaVuSans-30" x="83.789062"/>
       <use xlink:href="#DejaVuSans-2e" x="147.412109"/>
       <use xlink:href="#DejaVuSans-35" x="179.199219"/>
      </g>
     </g>
    </g>
    <g id="xtick_8">
     <g id="line2d_18">
      <g>
       <use xlink:href="#md347c8a744" x="2583.156582" y="2883.6" style="stroke: #000000; stroke-width: 0.8"/>
      </g>
     </g>
     <g id="text_19">
      <!-- 0.0 -->
      <g transform="translate(2549.76002 2922.513437) scale(0.42 -0.42)">
       <use xlink:href="#DejaVuSans-30"/>
       <use xlink:href="#DejaVuSans-2e" x="63.623047"/>
       <use xlink:href="#DejaVuSans-30" x="95.410156"/>
      </g>
     </g>
    </g>
    <g id="xtick_9">
     <g id="line2d_19">
      <g>
       <use xlink:href="#md347c8a744" x="2784.33697" y="2883.6" style="stroke: #000000; stroke-width: 0.8"/>
      </g>
     </g>
     <g id="text_20">
      <!-- 0.5 -->
      <g transform="translate(2750.940408 2922.513437) scale(0.42 -0.42)">
       <use xlink:href="#DejaVuSans-30"/>
       <use xlink:href="#DejaVuSans-2e" x="63.623047"/>
       <use xlink:href="#DejaVuSans-35" x="95.410156"/>
      </g>
     </g>
    </g>
    <g id="xtick_10">
     <g id="line2d_20">
      <g>
       <use xlink:href="#md347c8a744" x="2985.517358" y="2883.6" style="stroke: #000000; stroke-width: 0.8"/>
      </g>
     </g>
     <g id="text_21">
      <!-- 1.0 -->
      <g transform="translate(2952.120796 2922.513437) scale(0.42 -0.42)">
       <use xlink:href="#DejaVuSans-31"/>
       <use xlink:href="#DejaVuSans-2e" x="63.623047"/>
       <use xlink:href="#DejaVuSans-30" x="95.410156"/>
      </g>
     </g>
    </g>
   </g>
   <g id="matplotlib.axis_4">
    <g id="ytick_10">
     <g id="line2d_21">
      <g>
       <use xlink:href="#m1ec1f9cf3e" x="2008.588235" y="2883.6" style="stroke: #000000; stroke-width: 0.8"/>
      </g>
     </g>
     <g id="text_22">
      <!-- 0.0 -->
      <g transform="translate(1934.79511 2899.556719) scale(0.42 -0.42)">
       <use xlink:href="#DejaVuSans-30"/>
       <use xlink:href="#DejaVuSans-2e" x="63.623047"/>
       <use xlink:href="#DejaVuSans-30" x="95.410156"/>
      </g>
     </g>
    </g>
    <g id="ytick_11">
     <g id="line2d_22">
      <g>
       <use xlink:href="#m1ec1f9cf3e" x="2008.588235" y="2599.824835" style="stroke: #000000; stroke-width: 0.8"/>
      </g>
     </g>
     <g id="text_23">
      <!-- 0.2 -->
      <g transform="translate(1934.79511 2615.781554) scale(0.42 -0.42)">
       <use xlink:href="#DejaVuSans-30"/>
       <use xlink:href="#DejaVuSans-2e" x="63.623047"/>
       <use xlink:href="#DejaVuSans-32" x="95.410156"/>
      </g>
     </g>
    </g>
    <g id="ytick_12">
     <g id="line2d_23">
      <g>
       <use xlink:href="#m1ec1f9cf3e" x="2008.588235" y="2316.04967" style="stroke: #000000; stroke-width: 0.8"/>
      </g>
     </g>
     <g id="text_24">
      <!-- 0.4 -->
      <g transform="translate(1934.79511 2332.006389) scale(0.42 -0.42)">
       <use xlink:href="#DejaVuSans-30"/>
       <use xlink:href="#DejaVuSans-2e" x="63.623047"/>
       <use xlink:href="#DejaVuSans-34" x="95.410156"/>
      </g>
     </g>
    </g>
    <g id="ytick_13">
     <g id="line2d_24">
      <g>
       <use xlink:href="#m1ec1f9cf3e" x="2008.588235" y="2032.274505" style="stroke: #000000; stroke-width: 0.8"/>
      </g>
     </g>
     <g id="text_25">
      <!-- 0.6 -->
      <g transform="translate(1934.79511 2048.231224) scale(0.42 -0.42)">
       <use xlink:href="#DejaVuSans-30"/>
       <use xlink:href="#DejaVuSans-2e" x="63.623047"/>
       <use xlink:href="#DejaVuSans-36" x="95.410156"/>
      </g>
     </g>
    </g>
    <g id="ytick_14">
     <g id="line2d_25">
      <g>
       <use xlink:href="#m1ec1f9cf3e" x="2008.588235" y="1748.49934" style="stroke: #000000; stroke-width: 0.8"/>
      </g>
     </g>
     <g id="text_26">
      <!-- 0.8 -->
      <g transform="translate(1934.79511 1764.456059) scale(0.42 -0.42)">
       <use xlink:href="#DejaVuSans-30"/>
       <use xlink:href="#DejaVuSans-2e" x="63.623047"/>
       <use xlink:href="#DejaVuSans-38" x="95.410156"/>
      </g>
     </g>
    </g>
    <g id="ytick_15">
     <g id="line2d_26">
      <g>
       <use xlink:href="#m1ec1f9cf3e" x="2008.588235" y="1464.724175" style="stroke: #000000; stroke-width: 0.8"/>
      </g>
     </g>
     <g id="text_27">
      <!-- 1.0 -->
      <g transform="translate(1934.79511 1480.680894) scale(0.42 -0.42)">
       <use xlink:href="#DejaVuSans-31"/>
       <use xlink:href="#DejaVuSans-2e" x="63.623047"/>
       <use xlink:href="#DejaVuSans-30" x="95.410156"/>
      </g>
     </g>
    </g>
    <g id="ytick_16">
     <g id="line2d_27">
      <g>
       <use xlink:href="#m1ec1f9cf3e" x="2008.588235" y="1180.94901" style="stroke: #000000; stroke-width: 0.8"/>
      </g>
     </g>
     <g id="text_28">
      <!-- 1.2 -->
      <g transform="translate(1934.79511 1196.905728) scale(0.42 -0.42)">
       <use xlink:href="#DejaVuSans-31"/>
       <use xlink:href="#DejaVuSans-2e" x="63.623047"/>
       <use xlink:href="#DejaVuSans-32" x="95.410156"/>
      </g>
     </g>
    </g>
    <g id="ytick_17">
     <g id="line2d_28">
      <g>
       <use xlink:href="#m1ec1f9cf3e" x="2008.588235" y="897.173845" style="stroke: #000000; stroke-width: 0.8"/>
      </g>
     </g>
     <g id="text_29">
      <!-- 1.4 -->
      <g transform="translate(1934.79511 913.130563) scale(0.42 -0.42)">
       <use xlink:href="#DejaVuSans-31"/>
       <use xlink:href="#DejaVuSans-2e" x="63.623047"/>
       <use xlink:href="#DejaVuSans-34" x="95.410156"/>
      </g>
     </g>
    </g>
    <g id="ytick_18">
     <g id="line2d_29">
      <g>
       <use xlink:href="#m1ec1f9cf3e" x="2008.588235" y="613.39868" style="stroke: #000000; stroke-width: 0.8"/>
      </g>
     </g>
     <g id="text_30">
      <!-- 1.6 -->
      <g transform="translate(1934.79511 629.355398) scale(0.42 -0.42)">
       <use xlink:href="#DejaVuSans-31"/>
       <use xlink:href="#DejaVuSans-2e" x="63.623047"/>
       <use xlink:href="#DejaVuSans-36" x="95.410156"/>
      </g>
     </g>
    </g>
   </g>
   <g id="line2d_30">
    <path d="M 2121.715468 2882.002764 
L 2126.359195 2880.535187 
L 2131.002922 2877.974532 
L 2135.646649 2873.721361 
L 2140.290376 2867.000359 
L 2144.934103 2856.903 
L 2149.57783 2842.493287 
L 2154.221557 2822.981387 
L 2158.865283 2797.947559 
L 2163.50901 2767.571659 
L 2168.152737 2732.801807 
L 2177.440191 2657.760058 
L 2182.083918 2622.667157 
L 2186.727645 2592.773293 
L 2191.371372 2570.176845 
L 2196.015099 2556.056232 
L 2200.658826 2550.508006 
L 2205.302553 2552.615782 
L 2209.94628 2560.715345 
L 2214.590007 2572.768912 
L 2223.877461 2600.908159 
L 2228.521188 2613.999918 
L 2233.164915 2625.264091 
L 2237.808642 2634.391711 
L 2242.452369 2641.40171 
L 2247.096096 2646.507261 
L 2251.739823 2649.9967 
L 2256.38355 2652.146801 
L 2261.027277 2653.175289 
L 2265.671004 2653.230698 
L 2270.314731 2652.410801 
L 2274.958458 2650.796196 
L 2279.602185 2648.483936 
L 2284.245912 2645.608051 
L 2288.889639 2642.338982 
L 2312.108274 2624.87253 
L 2316.752001 2621.055894 
L 2321.395728 2616.702556 
L 2326.039455 2611.587025 
L 2330.683182 2605.573246 
L 2335.326909 2598.661421 
L 2339.970636 2591.000485 
L 2358.545544 2558.66298 
L 2363.189271 2551.310481 
L 2377.120452 2530.060629 
L 2381.764179 2522.268743 
L 2386.407906 2513.684718 
L 2391.051633 2504.205812 
L 2395.69536 2493.865722 
L 2400.339087 2482.805269 
L 2404.982814 2471.213847 
L 2414.270268 2447.00965 
L 2418.913995 2434.401183 
L 2423.557722 2421.193899 
L 2428.201449 2406.984826 
L 2432.845176 2391.236754 
L 2437.488903 2373.330175 
L 2442.13263 2352.628062 
L 2446.776357 2328.543887 
L 2451.420084 2300.604768 
L 2456.063811 2268.50603 
L 2460.707538 2232.159345 
L 2465.351265 2191.740578 
L 2469.994992 2147.741547 
L 2474.638719 2101.020928 
L 2483.926173 2004.831914 
L 2488.5699 1958.95046 
L 2493.213627 1917.268209 
L 2497.857354 1881.759341 
L 2502.501081 1854.03583 
L 2507.144808 1835.114494 
L 2511.788535 1825.259484 
L 2516.432262 1823.926481 
L 2521.075989 1829.806643 
L 2525.719716 1840.94515 
L 2535.00717 1868.900221 
L 2539.650897 1880.013488 
L 2544.294624 1885.280505 
L 2548.938351 1881.883102 
L 2553.582078 1867.352309 
L 2558.225805 1839.855291 
L 2562.869532 1798.563265 
L 2567.513259 1744.053862 
L 2572.156986 1678.640202 
L 2581.44444 1533.270777 
L 2586.088167 1465.589362 
L 2590.731894 1409.713816 
L 2595.375621 1370.36641 
L 2600.019348 1349.569018 
L 2604.663075 1345.986484 
L 2609.306802 1354.967944 
L 2613.950529 1369.302846 
L 2618.594256 1380.499979 
L 2623.237983 1380.262524 
L 2627.88171 1361.818013 
L 2632.525437 1320.861844 
L 2637.169164 1256.029815 
L 2641.812891 1168.953958 
L 2646.456618 1064.021859 
L 2660.387799 717.136713 
L 2665.031526 621.385122 
L 2669.675253 550.520751 
L 2674.31898 511.246977 
L 2678.962707 507.6 
L 2683.606434 540.567076 
L 2688.250161 608.154006 
L 2692.893888 705.851532 
L 2697.537615 827.358951 
L 2702.181342 965.394867 
L 2716.112523 1406.238493 
L 2720.75625 1541.87172 
L 2725.399977 1664.937808 
L 2730.043704 1773.569535 
L 2734.687431 1867.379611 
L 2739.331157 1947.234353 
L 2743.974884 2014.912134 
L 2748.618611 2072.702922 
L 2753.262338 2123.016333 
L 2757.906065 2168.059398 
L 2762.549792 2209.624624 
L 2767.193519 2249.000319 
L 2771.837246 2286.987146 
L 2781.1247 2360.102967 
L 2785.768427 2395.263824 
L 2790.412154 2429.265113 
L 2795.055881 2461.810568 
L 2799.699608 2492.516334 
L 2804.343335 2520.916771 
L 2808.987062 2546.488809 
L 2813.630789 2568.704912 
L 2818.274516 2587.112517 
L 2822.918243 2601.426956 
L 2827.56197 2611.617706 
L 2832.205697 2617.965762 
L 2836.849424 2621.073248 
L 2841.493151 2621.815162 
L 2846.136878 2621.236113 
L 2850.780605 2620.409169 
L 2855.424332 2620.285092 
L 2860.068059 2621.564056 
L 2864.711786 2624.616503 
L 2869.355513 2629.466803 
L 2873.99924 2635.837531 
L 2878.642967 2643.23878 
L 2887.930421 2658.779486 
L 2892.574148 2665.858014 
L 2897.217875 2671.996517 
L 2901.861602 2677.061887 
L 2906.505329 2681.097979 
L 2911.149056 2684.291133 
L 2915.792783 2686.921313 
L 2925.080237 2691.786326 
L 2929.723964 2694.64613 
L 2934.367691 2698.157596 
L 2939.011418 2702.555727 
L 2943.655145 2708.049419 
L 2948.298872 2714.82211 
L 2952.942599 2723.021585 
L 2957.586326 2732.737577 
L 2962.230053 2743.971169 
L 2966.87378 2756.60459 
L 2971.517507 2770.382285 
L 2985.448688 2814.183177 
L 2990.092415 2827.826185 
L 2994.736142 2840.163975 
L 2999.379869 2850.866417 
L 3004.023596 2859.76495 
L 3008.667323 2866.852397 
L 3013.31105 2872.257448 
L 3017.954777 2876.202886 
L 3022.598504 2878.958741 
L 3027.242231 2880.800314 
L 3031.885958 2881.97743 
L 3036.529685 2882.697025 
L 3041.173412 2883.117702 
L 3045.817139 2883.352863 
L 3045.817139 2883.352863 
" clip-path="url(#pfd1d23b898)" style="fill: none; stroke-dasharray: 11.1,4.8; stroke-dashoffset: 0; stroke: #ff0000; stroke-width: 3"/>
   </g>
   <g id="patch_9">
    <path d="M 2008.588235 2883.6 
L 2008.588235 388.8 
" style="fill: none; stroke: #000000; stroke-width: 0.8; stroke-linejoin: miter; stroke-linecap: square"/>
   </g>
   <g id="patch_10">
    <path d="M 3157.411765 2883.6 
L 3157.411765 388.8 
" style="fill: none; stroke: #000000; stroke-width: 0.8; stroke-linejoin: miter; stroke-linecap: square"/>
   </g>
   <g id="patch_11">
    <path d="M 2008.588235 2883.6 
L 3157.411765 2883.6 
" style="fill: none; stroke: #000000; stroke-width: 0.8; stroke-linejoin: miter; stroke-linecap: square"/>
   </g>
   <g id="patch_12">
    <path d="M 2008.588235 388.8 
L 3157.411765 388.8 
" style="fill: none; stroke: #000000; stroke-width: 0.8; stroke-linejoin: miter; stroke-linecap: square"/>
   </g>
   <g id="text_31">
    <g id="patch_13">
     <path d="M 2100.494118 666.59875 
L 2373.131618 666.59875 
Q 2393.131618 666.59875 2393.131618 646.59875 
L 2393.131618 607.88625 
Q 2393.131618 587.88625 2373.131618 587.88625 
L 2100.494118 587.88625 
Q 2080.494118 587.88625 2080.494118 607.88625 
L 2080.494118 646.59875 
Q 2080.494118 666.59875 2100.494118 666.59875 
z
" style="fill: #ff0000; opacity: 0.4; stroke: #000000; stroke-linejoin: miter"/>
    </g>
    <!-- QC-FC% = 92 -->
    <g transform="translate(2100.494118 638.28) scale(0.4 -0.4)">
     <use xlink:href="#DejaVuSans-51"/>
     <use xlink:href="#DejaVuSans-43" x="78.710938"/>
     <use xlink:href="#DejaVuSans-2d" x="148.535156"/>
     <use xlink:href="#DejaVuSans-46" x="184.619141"/>
     <use xlink:href="#DejaVuSans-43" x="242.138672"/>
     <use xlink:href="#DejaVuSans-25" x="311.962891"/>
     <use xlink:href="#DejaVuSans-20" x="406.982422"/>
     <use xlink:href="#DejaVuSans-3d" x="438.769531"/>
     <use xlink:href="#DejaVuSans-20" x="522.558594"/>
     <use xlink:href="#DejaVuSans-39" x="554.345703"/>
     <use xlink:href="#DejaVuSans-32" x="617.96875"/>
    </g>
   </g>
   <g id="text_32">
    <!-- fd_num -->
    <g transform="translate(2500.974375 378.425625) scale(0.44 -0.44)">
     <defs>
      <path id="DejaVuSans-75" d="M 544 1381 
L 544 3500 
L 1119 3500 
L 1119 1403 
Q 1119 906 1312 657 
Q 1506 409 1894 409 
Q 2359 409 2629 706 
Q 2900 1003 2900 1516 
L 2900 3500 
L 3475 3500 
L 3475 0 
L 2900 0 
L 2900 538 
Q 2691 219 2414 64 
Q 2138 -91 1772 -91 
Q 1169 -91 856 284 
Q 544 659 544 1381 
z
M 1991 3584 
L 1991 3584 
z
" transform="scale(0.015625)"/>
     </defs>
     <use xlink:href="#DejaVuSans-66"/>
     <use xlink:href="#DejaVuSans-64" x="35.205078"/>
     <use xlink:href="#DejaVuSans-5f" x="98.681641"/>
     <use xlink:href="#DejaVuSans-6e" x="148.681641"/>
     <use xlink:href="#DejaVuSans-75" x="212.060547"/>
     <use xlink:href="#DejaVuSans-6d" x="275.439453"/>
    </g>
   </g>
  </g>
  <g id="axes_3">
   <g id="patch_14">
    <path d="M 3387.176471 2883.6 
L 4536 2883.6 
L 4536 388.8 
L 3387.176471 388.8 
z
" style="fill: #ffffff"/>
   </g>
   <g id="PolyCollection_3">
    <defs>
     <path id="m411b411c2d" d="M 3439.395722 -358.373803 
L 3439.395722 -356.4 
L 3444.643888 -356.4 
L 3449.892054 -356.4 
L 3455.14022 -356.4 
L 3460.388386 -356.4 
L 3465.636552 -356.4 
L 3470.884718 -356.4 
L 3476.132884 -356.4 
L 3481.38105 -356.4 
L 3486.629216 -356.4 
L 3491.877382 -356.4 
L 3497.125548 -356.4 
L 3502.373713 -356.4 
L 3507.621879 -356.4 
L 3512.870045 -356.4 
L 3518.118211 -356.4 
L 3523.366377 -356.4 
L 3528.614543 -356.4 
L 3533.862709 -356.4 
L 3539.110875 -356.4 
L 3544.359041 -356.4 
L 3549.607207 -356.4 
L 3554.855373 -356.4 
L 3560.103539 -356.4 
L 3565.351705 -356.4 
L 3570.599871 -356.4 
L 3575.848037 -356.4 
L 3581.096203 -356.4 
L 3586.344369 -356.4 
L 3591.592535 -356.4 
L 3596.840701 -356.4 
L 3602.088867 -356.4 
L 3607.337033 -356.4 
L 3612.585199 -356.4 
L 3617.833365 -356.4 
L 3623.081531 -356.4 
L 3628.329697 -356.4 
L 3633.577863 -356.4 
L 3638.826029 -356.4 
L 3644.074195 -356.4 
L 3649.32236 -356.4 
L 3654.570526 -356.4 
L 3659.818692 -356.4 
L 3665.066858 -356.4 
L 3670.315024 -356.4 
L 3675.56319 -356.4 
L 3680.811356 -356.4 
L 3686.059522 -356.4 
L 3691.307688 -356.4 
L 3696.555854 -356.4 
L 3701.80402 -356.4 
L 3707.052186 -356.4 
L 3712.300352 -356.4 
L 3717.548518 -356.4 
L 3722.796684 -356.4 
L 3728.04485 -356.4 
L 3733.293016 -356.4 
L 3738.541182 -356.4 
L 3743.789348 -356.4 
L 3749.037514 -356.4 
L 3754.28568 -356.4 
L 3759.533846 -356.4 
L 3764.782012 -356.4 
L 3770.030178 -356.4 
L 3775.278344 -356.4 
L 3780.52651 -356.4 
L 3785.774676 -356.4 
L 3791.022841 -356.4 
L 3796.271007 -356.4 
L 3801.519173 -356.4 
L 3806.767339 -356.4 
L 3812.015505 -356.4 
L 3817.263671 -356.4 
L 3822.511837 -356.4 
L 3827.760003 -356.4 
L 3833.008169 -356.4 
L 3838.256335 -356.4 
L 3843.504501 -356.4 
L 3848.752667 -356.4 
L 3854.000833 -356.4 
L 3859.248999 -356.4 
L 3864.497165 -356.4 
L 3869.745331 -356.4 
L 3874.993497 -356.4 
L 3880.241663 -356.4 
L 3885.489829 -356.4 
L 3890.737995 -356.4 
L 3895.986161 -356.4 
L 3901.234327 -356.4 
L 3906.482493 -356.4 
L 3911.730659 -356.4 
L 3916.978825 -356.4 
L 3922.226991 -356.4 
L 3927.475157 -356.4 
L 3932.723322 -356.4 
L 3937.971488 -356.4 
L 3943.219654 -356.4 
L 3948.46782 -356.4 
L 3953.715986 -356.4 
L 3958.964152 -356.4 
L 3964.212318 -356.4 
L 3969.460484 -356.4 
L 3974.70865 -356.4 
L 3979.956816 -356.4 
L 3985.204982 -356.4 
L 3990.453148 -356.4 
L 3995.701314 -356.4 
L 4000.94948 -356.4 
L 4006.197646 -356.4 
L 4011.445812 -356.4 
L 4016.693978 -356.4 
L 4021.942144 -356.4 
L 4027.19031 -356.4 
L 4032.438476 -356.4 
L 4037.686642 -356.4 
L 4042.934808 -356.4 
L 4048.182974 -356.4 
L 4053.43114 -356.4 
L 4058.679306 -356.4 
L 4063.927472 -356.4 
L 4069.175638 -356.4 
L 4074.423804 -356.4 
L 4079.671969 -356.4 
L 4084.920135 -356.4 
L 4090.168301 -356.4 
L 4095.416467 -356.4 
L 4100.664633 -356.4 
L 4105.912799 -356.4 
L 4111.160965 -356.4 
L 4116.409131 -356.4 
L 4121.657297 -356.4 
L 4126.905463 -356.4 
L 4132.153629 -356.4 
L 4137.401795 -356.4 
L 4142.649961 -356.4 
L 4147.898127 -356.4 
L 4153.146293 -356.4 
L 4158.394459 -356.4 
L 4163.642625 -356.4 
L 4168.890791 -356.4 
L 4174.138957 -356.4 
L 4179.387123 -356.4 
L 4184.635289 -356.4 
L 4189.883455 -356.4 
L 4195.131621 -356.4 
L 4200.379787 -356.4 
L 4205.627953 -356.4 
L 4210.876119 -356.4 
L 4216.124285 -356.4 
L 4221.37245 -356.4 
L 4226.620616 -356.4 
L 4231.868782 -356.4 
L 4237.116948 -356.4 
L 4242.365114 -356.4 
L 4247.61328 -356.4 
L 4252.861446 -356.4 
L 4258.109612 -356.4 
L 4263.357778 -356.4 
L 4268.605944 -356.4 
L 4273.85411 -356.4 
L 4279.102276 -356.4 
L 4284.350442 -356.4 
L 4289.598608 -356.4 
L 4294.846774 -356.4 
L 4300.09494 -356.4 
L 4305.343106 -356.4 
L 4310.591272 -356.4 
L 4315.839438 -356.4 
L 4321.087604 -356.4 
L 4326.33577 -356.4 
L 4331.583936 -356.4 
L 4336.832102 -356.4 
L 4342.080268 -356.4 
L 4347.328434 -356.4 
L 4352.5766 -356.4 
L 4357.824766 -356.4 
L 4363.072932 -356.4 
L 4368.321097 -356.4 
L 4373.569263 -356.4 
L 4378.817429 -356.4 
L 4384.065595 -356.4 
L 4389.313761 -356.4 
L 4394.561927 -356.4 
L 4399.810093 -356.4 
L 4405.058259 -356.4 
L 4410.306425 -356.4 
L 4415.554591 -356.4 
L 4420.802757 -356.4 
L 4426.050923 -356.4 
L 4431.299089 -356.4 
L 4436.547255 -356.4 
L 4441.795421 -356.4 
L 4447.043587 -356.4 
L 4452.291753 -356.4 
L 4457.539919 -356.4 
L 4462.788085 -356.4 
L 4468.036251 -356.4 
L 4473.284417 -356.4 
L 4478.532583 -356.4 
L 4483.780749 -356.4 
L 4483.780749 -357.189753 
L 4483.780749 -357.189753 
L 4478.532583 -357.583626 
L 4473.284417 -358.147576 
L 4468.036251 -358.941998 
L 4462.788085 -360.042946 
L 4457.539919 -361.543877 
L 4452.291753 -363.556708 
L 4447.043587 -366.211769 
L 4441.795421 -369.656278 
L 4436.547255 -374.050941 
L 4431.299089 -379.564399 
L 4426.050923 -386.365361 
L 4420.802757 -394.612522 
L 4415.554591 -404.442613 
L 4410.306425 -415.957223 
L 4405.058259 -429.209372 
L 4399.810093 -444.191008 
L 4394.561927 -460.822794 
L 4389.313761 -478.947532 
L 4384.065595 -498.328431 
L 4378.817429 -518.653083 
L 4373.569263 -539.543524 
L 4368.321097 -560.572181 
L 4363.072932 -581.282835 
L 4357.824766 -601.215167 
L 4352.5766 -619.930958 
L 4347.328434 -637.039761 
L 4342.080268 -652.221816 
L 4336.832102 -665.246235 
L 4331.583936 -675.982921 
L 4326.33577 -684.40736 
L 4321.087604 -690.59812 
L 4315.839438 -694.727664 
L 4310.591272 -697.047653 
L 4305.343106 -697.870417 
L 4300.09494 -697.54845 
L 4294.846774 -696.453802 
L 4289.598608 -694.958993 
L 4284.350442 -693.420714 
L 4279.102276 -692.167092 
L 4273.85411 -691.488813 
L 4268.605944 -691.633984 
L 4263.357778 -692.80629 
L 4258.109612 -695.165812 
L 4252.861446 -698.831844 
L 4247.61328 -703.887079 
L 4242.365114 -710.38271 
L 4237.116948 -718.344122 
L 4231.868782 -727.777015 
L 4226.620616 -738.673914 
L 4221.37245 -751.021028 
L 4216.124285 -764.805405 
L 4210.876119 -780.022245 
L 4205.627953 -796.682111 
L 4200.379787 -814.817672 
L 4195.131621 -834.489513 
L 4189.883455 -855.790512 
L 4184.635289 -878.848261 
L 4179.387123 -903.825053 
L 4174.138957 -930.915006 
L 4168.890791 -960.337981 
L 4163.642625 -992.330017 
L 4158.394459 -1027.130099 
L 4153.146293 -1064.96323 
L 4147.898127 -1106.019945 
L 4142.649961 -1150.432688 
L 4137.401795 -1198.249872 
L 4132.153629 -1249.408916 
L 4126.905463 -1303.710096 
L 4121.657297 -1360.793585 
L 4116.409131 -1420.12246 
L 4111.160965 -1480.97466 
L 4105.912799 -1542.44669 
L 4100.664633 -1603.471323 
L 4095.416467 -1662.850476 
L 4090.168301 -1719.303067 
L 4084.920135 -1771.525896 
L 4079.671969 -1818.263873 
L 4074.423804 -1858.384265 
L 4069.175638 -1890.948498 
L 4063.927472 -1915.274519 
L 4058.679306 -1930.983062 
L 4053.43114 -1938.022355 
L 4048.182974 -1936.667814 
L 4042.934808 -1927.495868 
L 4037.686642 -1911.333942 
L 4032.438476 -1889.191399 
L 4027.19031 -1862.178523 
L 4021.942144 -1831.422057 
L 4016.693978 -1797.986202 
L 4011.445812 -1762.807198 
L 4006.197646 -1726.647798 
L 4000.94948 -1690.075336 
L 3995.701314 -1653.464036 
L 3990.453148 -1617.019219 
L 3985.204982 -1580.818409 
L 3979.956816 -1544.862616 
L 3974.70865 -1509.130194 
L 3969.460484 -1473.625987 
L 3964.212318 -1438.419657 
L 3958.964152 -1403.669043 
L 3953.715986 -1369.626692 
L 3948.46782 -1336.630079 
L 3943.219654 -1305.078035 
L 3937.971488 -1275.397442 
L 3932.723322 -1248.005009 
L 3927.475157 -1223.269067 
L 3922.226991 -1201.475747 
L 3916.978825 -1182.802919 
L 3911.730659 -1167.303972 
L 3906.482493 -1154.902192 
L 3901.234327 -1145.39526 
L 3895.986161 -1138.468459 
L 3890.737995 -1133.714492 
L 3885.489829 -1130.657555 
L 3880.241663 -1128.779301 
L 3874.993497 -1127.544594 
L 3869.745331 -1126.425367 
L 3864.497165 -1124.921445 
L 3859.248999 -1122.57765 
L 3854.000833 -1118.997019 
L 3848.752667 -1113.850291 
L 3843.504501 -1106.882047 
L 3838.256335 -1097.914022 
L 3833.008169 -1086.846065 
L 3827.760003 -1073.655152 
L 3822.511837 -1058.392722 
L 3817.263671 -1041.180428 
L 3812.015505 -1022.20432 
L 3806.767339 -1001.707383 
L 3801.519173 -979.980385 
L 3796.271007 -957.351074 
L 3791.022841 -934.171904 
L 3785.774676 -910.806669 
L 3780.52651 -887.616581 
L 3775.278344 -864.946497 
L 3770.030178 -843.112083 
L 3764.782012 -822.388681 
L 3759.533846 -803.002614 
L 3754.28568 -785.125438 
L 3749.037514 -768.871484 
L 3743.789348 -754.298742 
L 3738.541182 -741.412882 
L 3733.293016 -730.173977 
L 3728.04485 -720.505317 
L 3722.796684 -712.303544 
L 3717.548518 -705.44933 
L 3712.300352 -699.817816 
L 3707.052186 -695.288126 
L 3701.80402 -691.751391 
L 3696.555854 -689.11688 
L 3691.307688 -687.315997 
L 3686.059522 -686.304024 
L 3680.811356 -686.059635 
L 3675.56319 -686.582243 
L 3670.315024 -687.887304 
L 3665.066858 -689.99971 
L 3659.818692 -692.945425 
L 3654.570526 -696.741567 
L 3649.32236 -701.385248 
L 3644.074195 -706.841662 
L 3638.826029 -713.032118 
L 3633.577863 -719.823034 
L 3628.329697 -727.017093 
L 3623.081531 -734.347991 
L 3617.833365 -741.480179 
L 3612.585199 -748.014818 
L 3607.337033 -753.502726 
L 3602.088867 -757.46442 
L 3596.840701 -759.416517 
L 3591.592535 -758.902861 
L 3586.344369 -755.527898 
L 3581.096203 -748.989226 
L 3575.848037 -739.105961 
L 3570.599871 -725.839739 
L 3565.351705 -709.30574 
L 3560.103539 -689.772121 
L 3554.855373 -667.647487 
L 3549.607207 -643.457329 
L 3544.359041 -617.811609 
L 3539.110875 -591.3666 
L 3533.862709 -564.78464 
L 3528.614543 -538.695531 
L 3523.366377 -513.662913 
L 3518.118211 -490.158219 
L 3512.870045 -468.543766 
L 3507.621879 -449.065472 
L 3502.373713 -431.854665 
L 3497.125548 -416.937573 
L 3491.877382 -404.250578 
L 3486.629216 -393.659007 
L 3481.38105 -384.977298 
L 3476.132884 -377.98864 
L 3470.884718 -372.462606 
L 3465.636552 -368.169799 
L 3460.388386 -364.893038 
L 3455.14022 -362.435027 
L 3449.892054 -360.622805 
L 3444.643888 -359.309468 
L 3439.395722 -358.373803 
z
" style="stroke: #1f77b4; stroke-width: 3"/>
    </defs>
    <g clip-path="url(#pbc3589a1fe)">
     <use xlink:href="#m411b411c2d" x="0" y="3240" style="fill: #1f77b4; fill-opacity: 0.25; stroke: #1f77b4; stroke-width: 3"/>
    </g>
   </g>
   <g id="matplotlib.axis_5">
    <g id="xtick_11">
     <g id="line2d_31">
      <g>
       <use xlink:href="#md347c8a744" x="3559.366674" y="2883.6" style="stroke: #000000; stroke-width: 0.8"/>
      </g>
     </g>
     <g id="text_33">
      <!-- −1.0 -->
      <g transform="translate(3508.372768 2922.513437) scale(0.42 -0.42)">
       <use xlink:href="#DejaVuSans-2212"/>
       <use xlink:href="#DejaVuSans-31" x="83.789062"/>
       <use xlink:href="#DejaVuSans-2e" x="147.412109"/>
       <use xlink:href="#DejaVuSans-30" x="179.199219"/>
      </g>
     </g>
    </g>
    <g id="xtick_12">
     <g id="line2d_32">
      <g>
       <use xlink:href="#md347c8a744" x="3760.551713" y="2883.6" style="stroke: #000000; stroke-width: 0.8"/>
      </g>
     </g>
     <g id="text_34">
      <!-- −0.5 -->
      <g transform="translate(3709.557807 2922.513437) scale(0.42 -0.42)">
       <use xlink:href="#DejaVuSans-2212"/>
       <use xlink:href="#DejaVuSans-30" x="83.789062"/>
       <use xlink:href="#DejaVuSans-2e" x="147.412109"/>
       <use xlink:href="#DejaVuSans-35" x="179.199219"/>
      </g>
     </g>
    </g>
    <g id="xtick_13">
     <g id="line2d_33">
      <g>
       <use xlink:href="#md347c8a744" x="3961.736753" y="2883.6" style="stroke: #000000; stroke-width: 0.8"/>
      </g>
     </g>
     <g id="text_35">
      <!-- 0.0 -->
      <g transform="translate(3928.34019 2922.513437) scale(0.42 -0.42)">
       <use xlink:href="#DejaVuSans-30"/>
       <use xlink:href="#DejaVuSans-2e" x="63.623047"/>
       <use xlink:href="#DejaVuSans-30" x="95.410156"/>
      </g>
     </g>
    </g>
    <g id="xtick_14">
     <g id="line2d_34">
      <g>
       <use xlink:href="#md347c8a744" x="4162.921792" y="2883.6" style="stroke: #000000; stroke-width: 0.8"/>
      </g>
     </g>
     <g id="text_36">
      <!-- 0.5 -->
      <g transform="translate(4129.525229 2922.513437) scale(0.42 -0.42)">
       <use xlink:href="#DejaVuSans-30"/>
       <use xlink:href="#DejaVuSans-2e" x="63.623047"/>
       <use xlink:href="#DejaVuSans-35" x="95.410156"/>
      </g>
     </g>
    </g>
    <g id="xtick_15">
     <g id="line2d_35">
      <g>
       <use xlink:href="#md347c8a744" x="4364.106831" y="2883.6" style="stroke: #000000; stroke-width: 0.8"/>
      </g>
     </g>
     <g id="text_37">
      <!-- 1.0 -->
      <g transform="translate(4330.710268 2922.513437) scale(0.42 -0.42)">
       <use xlink:href="#DejaVuSans-31"/>
       <use xlink:href="#DejaVuSans-2e" x="63.623047"/>
       <use xlink:href="#DejaVuSans-30" x="95.410156"/>
      </g>
     </g>
    </g>
   </g>
   <g id="matplotlib.axis_6">
    <g id="ytick_19">
     <g id="line2d_36">
      <g>
       <use xlink:href="#m1ec1f9cf3e" x="3387.176471" y="2883.6" style="stroke: #000000; stroke-width: 0.8"/>
      </g>
     </g>
     <g id="text_38">
      <!-- 0.0 -->
      <g transform="translate(3313.383346 2899.556719) scale(0.42 -0.42)">
       <use xlink:href="#DejaVuSans-30"/>
       <use xlink:href="#DejaVuSans-2e" x="63.623047"/>
       <use xlink:href="#DejaVuSans-30" x="95.410156"/>
      </g>
     </g>
    </g>
    <g id="ytick_20">
     <g id="line2d_37">
      <g>
       <use xlink:href="#m1ec1f9cf3e" x="3387.176471" y="2599.768045" style="stroke: #000000; stroke-width: 0.8"/>
      </g>
     </g>
     <g id="text_39">
      <!-- 0.2 -->
      <g transform="translate(3313.383346 2615.724763) scale(0.42 -0.42)">
       <use xlink:href="#DejaVuSans-30"/>
       <use xlink:href="#DejaVuSans-2e" x="63.623047"/>
       <use xlink:href="#DejaVuSans-32" x="95.410156"/>
      </g>
     </g>
    </g>
    <g id="ytick_21">
     <g id="line2d_38">
      <g>
       <use xlink:href="#m1ec1f9cf3e" x="3387.176471" y="2315.936089" style="stroke: #000000; stroke-width: 0.8"/>
      </g>
     </g>
     <g id="text_40">
      <!-- 0.4 -->
      <g transform="translate(3313.383346 2331.892808) scale(0.42 -0.42)">
       <use xlink:href="#DejaVuSans-30"/>
       <use xlink:href="#DejaVuSans-2e" x="63.623047"/>
       <use xlink:href="#DejaVuSans-34" x="95.410156"/>
      </g>
     </g>
    </g>
    <g id="ytick_22">
     <g id="line2d_39">
      <g>
       <use xlink:href="#m1ec1f9cf3e" x="3387.176471" y="2032.104134" style="stroke: #000000; stroke-width: 0.8"/>
      </g>
     </g>
     <g id="text_41">
      <!-- 0.6 -->
      <g transform="translate(3313.383346 2048.060853) scale(0.42 -0.42)">
       <use xlink:href="#DejaVuSans-30"/>
       <use xlink:href="#DejaVuSans-2e" x="63.623047"/>
       <use xlink:href="#DejaVuSans-36" x="95.410156"/>
      </g>
     </g>
    </g>
    <g id="ytick_23">
     <g id="line2d_40">
      <g>
       <use xlink:href="#m1ec1f9cf3e" x="3387.176471" y="1748.272179" style="stroke: #000000; stroke-width: 0.8"/>
      </g>
     </g>
     <g id="text_42">
      <!-- 0.8 -->
      <g transform="translate(3313.383346 1764.228897) scale(0.42 -0.42)">
       <use xlink:href="#DejaVuSans-30"/>
       <use xlink:href="#DejaVuSans-2e" x="63.623047"/>
       <use xlink:href="#DejaVuSans-38" x="95.410156"/>
      </g>
     </g>
    </g>
    <g id="ytick_24">
     <g id="line2d_41">
      <g>
       <use xlink:href="#m1ec1f9cf3e" x="3387.176471" y="1464.440223" style="stroke: #000000; stroke-width: 0.8"/>
      </g>
     </g>
     <g id="text_43">
      <!-- 1.0 -->
      <g transform="translate(3313.383346 1480.396942) scale(0.42 -0.42)">
       <use xlink:href="#DejaVuSans-31"/>
       <use xlink:href="#DejaVuSans-2e" x="63.623047"/>
       <use xlink:href="#DejaVuSans-30" x="95.410156"/>
      </g>
     </g>
    </g>
    <g id="ytick_25">
     <g id="line2d_42">
      <g>
       <use xlink:href="#m1ec1f9cf3e" x="3387.176471" y="1180.608268" style="stroke: #000000; stroke-width: 0.8"/>
      </g>
     </g>
     <g id="text_44">
      <!-- 1.2 -->
      <g transform="translate(3313.383346 1196.564987) scale(0.42 -0.42)">
       <use xlink:href="#DejaVuSans-31"/>
       <use xlink:href="#DejaVuSans-2e" x="63.623047"/>
       <use xlink:href="#DejaVuSans-32" x="95.410156"/>
      </g>
     </g>
    </g>
    <g id="ytick_26">
     <g id="line2d_43">
      <g>
       <use xlink:href="#m1ec1f9cf3e" x="3387.176471" y="896.776313" style="stroke: #000000; stroke-width: 0.8"/>
      </g>
     </g>
     <g id="text_45">
      <!-- 1.4 -->
      <g transform="translate(3313.383346 912.733031) scale(0.42 -0.42)">
       <use xlink:href="#DejaVuSans-31"/>
       <use xlink:href="#DejaVuSans-2e" x="63.623047"/>
       <use xlink:href="#DejaVuSans-34" x="95.410156"/>
      </g>
     </g>
    </g>
    <g id="ytick_27">
     <g id="line2d_44">
      <g>
       <use xlink:href="#m1ec1f9cf3e" x="3387.176471" y="612.944357" style="stroke: #000000; stroke-width: 0.8"/>
      </g>
     </g>
     <g id="text_46">
      <!-- 1.6 -->
      <g transform="translate(3313.383346 628.901076) scale(0.42 -0.42)">
       <use xlink:href="#DejaVuSans-31"/>
       <use xlink:href="#DejaVuSans-2e" x="63.623047"/>
       <use xlink:href="#DejaVuSans-36" x="95.410156"/>
      </g>
     </g>
    </g>
   </g>
   <g id="line2d_45">
    <path d="M 3500.282252 2882.00138 
L 3504.925989 2880.532624 
L 3509.569727 2877.970018 
L 3514.213464 2873.713805 
L 3518.857201 2866.988354 
L 3523.500939 2856.884912 
L 3528.144676 2842.467491 
L 3532.788414 2822.946637 
L 3537.432151 2797.903477 
L 3542.075889 2767.519231 
L 3546.719626 2732.743727 
L 3556.007101 2657.705205 
L 3560.650838 2622.622805 
L 3565.294576 2592.744557 
L 3569.938313 2570.1666 
L 3574.58205 2556.06412 
L 3579.225788 2550.530117 
L 3583.869525 2552.645149 
L 3588.513263 2560.743207 
L 3593.157 2572.786435 
L 3602.444475 2600.886483 
L 3607.088212 2613.955967 
L 3611.73195 2625.200708 
L 3616.375687 2634.31434 
L 3621.019425 2641.317188 
L 3625.663162 2646.422534 
L 3630.306899 2649.917698 
L 3634.950637 2652.077629 
L 3639.594374 2653.117781 
L 3644.238112 2653.18434 
L 3648.881849 2652.373014 
L 3653.525586 2650.762936 
L 3658.169324 2648.450574 
L 3662.813061 2645.570412 
L 3667.456799 2642.29438 
L 3690.675486 2624.836853 
L 3695.319223 2621.041654 
L 3699.96296 2616.714743 
L 3704.606698 2611.627627 
L 3709.250435 2605.640839 
L 3713.894173 2598.751462 
L 3718.53791 2591.10626 
L 3737.11286 2558.766694 
L 3741.756597 2551.405386 
L 3755.687809 2530.127589 
L 3760.331547 2522.325129 
L 3764.975284 2513.72962 
L 3769.619022 2504.239268 
L 3774.262759 2493.889698 
L 3778.906496 2482.824309 
L 3783.550234 2471.235123 
L 3792.837709 2447.06389 
L 3797.481446 2434.48677 
L 3802.125184 2421.319304 
L 3806.768921 2407.156674 
L 3811.412658 2391.459962 
L 3816.056396 2373.608697 
L 3820.700133 2352.966003 
L 3825.343871 2328.94658 
L 3829.987608 2301.079276 
L 3834.631345 2269.060505 
L 3839.275083 2232.80086 
L 3843.91882 2192.471393 
L 3848.562558 2148.554377 
L 3853.206295 2101.894404 
L 3862.49377 2005.695887 
L 3867.137507 1959.716681 
L 3871.781245 1917.868212 
L 3876.424982 1882.132921 
L 3881.06872 1854.141555 
L 3885.712457 1834.937035 
L 3890.356194 1824.811854 
L 3894.999932 1823.246784 
L 3899.643669 1828.950656 
L 3904.287407 1839.977171 
L 3913.574881 1867.897161 
L 3918.218619 1879.075641 
L 3922.862356 1884.454862 
L 3927.506094 1881.21215 
L 3932.149831 1866.873845 
L 3936.793568 1839.599036 
L 3941.437306 1798.544152 
L 3946.081043 1744.26361 
L 3950.724781 1679.040241 
L 3960.012255 1533.81118 
L 3964.655993 1466.039069 
L 3969.29973 1409.966463 
L 3973.943468 1370.34109 
L 3978.587205 1349.225294 
L 3983.230943 1345.329419 
L 3987.87468 1354.040927 
L 3992.518417 1368.16978 
L 3997.162155 1379.221994 
L 4001.805892 1378.876524 
L 4006.44963 1360.324398 
L 4011.093367 1319.226394 
L 4015.737104 1254.2006 
L 4020.380842 1166.889304 
L 4025.024579 1061.72124 
L 4038.955791 714.786528 
L 4043.599529 619.409403 
L 4048.243266 549.112807 
L 4052.887004 510.531168 
L 4057.530741 507.6 
L 4062.174479 541.19745 
L 4066.818216 609.237482 
L 4071.461953 707.156655 
L 4076.105691 828.647136 
L 4080.749428 966.464099 
L 4094.68064 1406.141689 
L 4099.324378 1541.440138 
L 4103.968115 1664.263301 
L 4108.611853 1772.74903 
L 4113.25559 1866.49924 
L 4117.899327 1946.361414 
L 4122.543065 2014.093783 
L 4127.186802 2071.96914 
L 4131.83054 2122.384446 
L 4136.474277 2167.538109 
L 4141.118015 2209.21649 
L 4145.761752 2248.702656 
L 4150.405489 2286.792011 
L 4155.049227 2323.878666 
L 4159.692964 2360.068358 
L 4164.336702 2395.279359 
L 4168.980439 2429.308886 
L 4173.624176 2461.86248 
L 4178.267914 2492.560274 
L 4182.911651 2520.941927 
L 4187.555389 2546.489938 
L 4192.199126 2568.681703 
L 4196.842863 2587.06842 
L 4201.486601 2601.367809 
L 4206.130338 2611.55046 
L 4210.774076 2617.897398 
L 4215.417813 2621.009908 
L 4220.06155 2621.761455 
L 4224.705288 2621.19458 
L 4229.349025 2620.379968 
L 4233.992763 2620.26598 
L 4238.6365 2621.550755 
L 4243.280238 2624.60345 
L 4247.923975 2629.448205 
L 4252.567712 2635.808501 
L 4257.21145 2643.196289 
L 4266.498925 2658.710436 
L 4271.142662 2665.779971 
L 4275.786399 2671.913877 
L 4280.430137 2676.979143 
L 4285.073874 2681.019082 
L 4289.717612 2684.219109 
L 4294.361349 2686.858077 
L 4303.648824 2691.741164 
L 4308.292561 2694.607192 
L 4312.936299 2698.120839 
L 4317.580036 2702.515802 
L 4322.223774 2708.000385 
L 4326.867511 2714.758455 
L 4331.511248 2722.939318 
L 4336.154986 2732.635104 
L 4340.798723 2743.849712 
L 4345.442461 2756.468047 
L 4350.086198 2770.236587 
L 4364.01741 2814.050996 
L 4368.661148 2827.709323 
L 4373.304885 2840.065001 
L 4377.948622 2850.786049 
L 4382.59236 2859.702349 
L 4387.236097 2866.805609 
L 4391.879835 2872.223895 
L 4396.523572 2876.179801 
L 4401.16731 2878.943507 
L 4405.811047 2880.790675 
L 4410.454784 2881.971584 
L 4415.098522 2882.693628 
L 4419.742259 2883.115812 
L 4424.385997 2883.351855 
L 4424.385997 2883.351855 
" clip-path="url(#pbc3589a1fe)" style="fill: none; stroke-dasharray: 11.1,4.8; stroke-dashoffset: 0; stroke: #ff0000; stroke-width: 3"/>
   </g>
   <g id="patch_15">
    <path d="M 3387.176471 2883.6 
L 3387.176471 388.8 
" style="fill: none; stroke: #000000; stroke-width: 0.8; stroke-linejoin: miter; stroke-linecap: square"/>
   </g>
   <g id="patch_16">
    <path d="M 4536 2883.6 
L 4536 388.8 
" style="fill: none; stroke: #000000; stroke-width: 0.8; stroke-linejoin: miter; stroke-linecap: square"/>
   </g>
   <g id="patch_17">
    <path d="M 3387.176471 2883.6 
L 4536 2883.6 
" style="fill: none; stroke: #000000; stroke-width: 0.8; stroke-linejoin: miter; stroke-linecap: square"/>
   </g>
   <g id="patch_18">
    <path d="M 3387.176471 388.8 
L 4536 388.8 
" style="fill: none; stroke: #000000; stroke-width: 0.8; stroke-linejoin: miter; stroke-linecap: square"/>
   </g>
   <g id="text_47">
    <g id="patch_19">
     <path d="M 3479.082353 666.59875 
L 3751.719853 666.59875 
Q 3771.719853 666.59875 3771.719853 646.59875 
L 3771.719853 607.88625 
Q 3771.719853 587.88625 3751.719853 587.88625 
L 3479.082353 587.88625 
Q 3459.082353 587.88625 3459.082353 607.88625 
L 3459.082353 646.59875 
Q 3459.082353 666.59875 3479.082353 666.59875 
z
" style="fill: #ff0000; opacity: 0.4; stroke: #000000; stroke-linejoin: miter"/>
    </g>
    <!-- QC-FC% = 93 -->
    <g transform="translate(3479.082353 638.28) scale(0.4 -0.4)">
     <defs>
      <path id="DejaVuSans-33" d="M 2597 2516 
Q 3050 2419 3304 2112 
Q 3559 1806 3559 1356 
Q 3559 666 3084 287 
Q 2609 -91 1734 -91 
Q 1441 -91 1130 -33 
Q 819 25 488 141 
L 488 750 
Q 750 597 1062 519 
Q 1375 441 1716 441 
Q 2309 441 2620 675 
Q 2931 909 2931 1356 
Q 2931 1769 2642 2001 
Q 2353 2234 1838 2234 
L 1294 2234 
L 1294 2753 
L 1863 2753 
Q 2328 2753 2575 2939 
Q 2822 3125 2822 3475 
Q 2822 3834 2567 4026 
Q 2313 4219 1838 4219 
Q 1578 4219 1281 4162 
Q 984 4106 628 3988 
L 628 4550 
Q 988 4650 1302 4700 
Q 1616 4750 1894 4750 
Q 2613 4750 3031 4423 
Q 3450 4097 3450 3541 
Q 3450 3153 3228 2886 
Q 3006 2619 2597 2516 
z
" transform="scale(0.015625)"/>
     </defs>
     <use xlink:href="#DejaVuSans-51"/>
     <use xlink:href="#DejaVuSans-43" x="78.710938"/>
     <use xlink:href="#DejaVuSans-2d" x="148.535156"/>
     <use xlink:href="#DejaVuSans-46" x="184.619141"/>
     <use xlink:href="#DejaVuSans-43" x="242.138672"/>
     <use xlink:href="#DejaVuSans-25" x="311.962891"/>
     <use xlink:href="#DejaVuSans-20" x="406.982422"/>
     <use xlink:href="#DejaVuSans-3d" x="438.769531"/>
     <use xlink:href="#DejaVuSans-20" x="522.558594"/>
     <use xlink:href="#DejaVuSans-39" x="554.345703"/>
     <use xlink:href="#DejaVuSans-33" x="617.96875"/>
    </g>
   </g>
   <g id="text_48">
    <!-- fd_perc -->
    <g transform="translate(3880.727923 378.425625) scale(0.44 -0.44)">
     <defs>
      <path id="DejaVuSans-70" d="M 1159 525 
L 1159 -1331 
L 581 -1331 
L 581 3500 
L 1159 3500 
L 1159 2969 
Q 1341 3281 1617 3432 
Q 1894 3584 2278 3584 
Q 2916 3584 3314 3078 
Q 3713 2572 3713 1747 
Q 3713 922 3314 415 
Q 2916 -91 2278 -91 
Q 1894 -91 1617 61 
Q 1341 213 1159 525 
z
M 3116 1747 
Q 3116 2381 2855 2742 
Q 2594 3103 2138 3103 
Q 1681 3103 1420 2742 
Q 1159 2381 1159 1747 
Q 1159 1113 1420 752 
Q 1681 391 2138 391 
Q 2594 391 2855 752 
Q 3116 1113 3116 1747 
z
" transform="scale(0.015625)"/>
      <path id="DejaVuSans-72" d="M 2631 2963 
Q 2534 3019 2420 3045 
Q 2306 3072 2169 3072 
Q 1681 3072 1420 2755 
Q 1159 2438 1159 1844 
L 1159 0 
L 581 0 
L 581 3500 
L 1159 3500 
L 1159 2956 
Q 1341 3275 1631 3429 
Q 1922 3584 2338 3584 
Q 2397 3584 2469 3576 
Q 2541 3569 2628 3553 
L 2631 2963 
z
" transform="scale(0.015625)"/>
      <path id="DejaVuSans-63" d="M 3122 3366 
L 3122 2828 
Q 2878 2963 2633 3030 
Q 2388 3097 2138 3097 
Q 1578 3097 1268 2742 
Q 959 2388 959 1747 
Q 959 1106 1268 751 
Q 1578 397 2138 397 
Q 2388 397 2633 464 
Q 2878 531 3122 666 
L 3122 134 
Q 2881 22 2623 -34 
Q 2366 -91 2075 -91 
Q 1284 -91 818 406 
Q 353 903 353 1747 
Q 353 2603 823 3093 
Q 1294 3584 2113 3584 
Q 2378 3584 2631 3529 
Q 2884 3475 3122 3366 
z
" transform="scale(0.015625)"/>
     </defs>
     <use xlink:href="#DejaVuSans-66"/>
     <use xlink:href="#DejaVuSans-64" x="35.205078"/>
     <use xlink:href="#DejaVuSans-5f" x="98.681641"/>
     <use xlink:href="#DejaVuSans-70" x="148.681641"/>
     <use xlink:href="#DejaVuSans-65" x="212.158203"/>
     <use xlink:href="#DejaVuSans-72" x="273.681641"/>
     <use xlink:href="#DejaVuSans-63" x="312.544922"/>
    </g>
   </g>
   <g id="legend_1">
    <g id="patch_20">
     <path d="M 3603.005423 2861.6 
L 4320.171048 2861.6 
Q 4328.971048 2861.6 4328.971048 2852.8 
L 4328.971048 2728.0325 
Q 4328.971048 2719.2325 4320.171048 2719.2325 
L 3603.005423 2719.2325 
Q 3594.205423 2719.2325 3594.205423 2728.0325 
L 3594.205423 2852.8 
Q 3594.205423 2861.6 3603.005423 2861.6 
z
" style="fill: #ffffff; opacity: 0.8; stroke: #cccccc; stroke-linejoin: miter"/>
    </g>
    <g id="patch_21">
     <path d="M 3611.805423 2770.265625 
L 3699.805423 2770.265625 
L 3699.805423 2739.465625 
L 3611.805423 2739.465625 
z
" style="fill: #1f77b4; fill-opacity: 0.25; stroke: #1f77b4; stroke-width: 3; stroke-linejoin: miter"/>
    </g>
    <g id="text_49">
     <!-- QC-FC distribution -->
     <g transform="translate(3735.005423 2770.265625) scale(0.44 -0.44)">
      <defs>
       <path id="DejaVuSans-69" d="M 603 3500 
L 1178 3500 
L 1178 0 
L 603 0 
L 603 3500 
z
M 603 4863 
L 1178 4863 
L 1178 4134 
L 603 4134 
L 603 4863 
z
" transform="scale(0.015625)"/>
       <path id="DejaVuSans-73" d="M 2834 3397 
L 2834 2853 
Q 2591 2978 2328 3040 
Q 2066 3103 1784 3103 
Q 1356 3103 1142 2972 
Q 928 2841 928 2578 
Q 928 2378 1081 2264 
Q 1234 2150 1697 2047 
L 1894 2003 
Q 2506 1872 2764 1633 
Q 3022 1394 3022 966 
Q 3022 478 2636 193 
Q 2250 -91 1575 -91 
Q 1294 -91 989 -36 
Q 684 19 347 128 
L 347 722 
Q 666 556 975 473 
Q 1284 391 1588 391 
Q 1994 391 2212 530 
Q 2431 669 2431 922 
Q 2431 1156 2273 1281 
Q 2116 1406 1581 1522 
L 1381 1569 
Q 847 1681 609 1914 
Q 372 2147 372 2553 
Q 372 3047 722 3315 
Q 1072 3584 1716 3584 
Q 2034 3584 2315 3537 
Q 2597 3491 2834 3397 
z
" transform="scale(0.015625)"/>
       <path id="DejaVuSans-74" d="M 1172 4494 
L 1172 3500 
L 2356 3500 
L 2356 3053 
L 1172 3053 
L 1172 1153 
Q 1172 725 1289 603 
Q 1406 481 1766 481 
L 2356 481 
L 2356 0 
L 1766 0 
Q 1100 0 847 248 
Q 594 497 594 1153 
L 594 3053 
L 172 3053 
L 172 3500 
L 594 3500 
L 594 4494 
L 1172 4494 
z
" transform="scale(0.015625)"/>
       <path id="DejaVuSans-62" d="M 3116 1747 
Q 3116 2381 2855 2742 
Q 2594 3103 2138 3103 
Q 1681 3103 1420 2742 
Q 1159 2381 1159 1747 
Q 1159 1113 1420 752 
Q 1681 391 2138 391 
Q 2594 391 2855 752 
Q 3116 1113 3116 1747 
z
M 1159 2969 
Q 1341 3281 1617 3432 
Q 1894 3584 2278 3584 
Q 2916 3584 3314 3078 
Q 3713 2572 3713 1747 
Q 3713 922 3314 415 
Q 2916 -91 2278 -91 
Q 1894 -91 1617 61 
Q 1341 213 1159 525 
L 1159 0 
L 581 0 
L 581 4863 
L 1159 4863 
L 1159 2969 
z
" transform="scale(0.015625)"/>
       <path id="DejaVuSans-6f" d="M 1959 3097 
Q 1497 3097 1228 2736 
Q 959 2375 959 1747 
Q 959 1119 1226 758 
Q 1494 397 1959 397 
Q 2419 397 2687 759 
Q 2956 1122 2956 1747 
Q 2956 2369 2687 2733 
Q 2419 3097 1959 3097 
z
M 1959 3584 
Q 2709 3584 3137 3096 
Q 3566 2609 3566 1747 
Q 3566 888 3137 398 
Q 2709 -91 1959 -91 
Q 1206 -91 779 398 
Q 353 888 353 1747 
Q 353 2609 779 3096 
Q 1206 3584 1959 3584 
z
" transform="scale(0.015625)"/>
      </defs>
      <use xlink:href="#DejaVuSans-51"/>
      <use xlink:href="#DejaVuSans-43" x="78.710938"/>
      <use xlink:href="#DejaVuSans-2d" x="148.535156"/>
      <use xlink:href="#DejaVuSans-46" x="184.619141"/>
      <use xlink:href="#DejaVuSans-43" x="242.138672"/>
      <use xlink:href="#DejaVuSans-20" x="311.962891"/>
      <use xlink:href="#DejaVuSans-64" x="343.75"/>
      <use xlink:href="#DejaVuSans-69" x="407.226562"/>
      <use xlink:href="#DejaVuSans-73" x="435.009766"/>
      <use xlink:href="#DejaVuSans-74" x="487.109375"/>
      <use xlink:href="#DejaVuSans-72" x="526.318359"/>
      <use xlink:href="#DejaVuSans-69" x="567.431641"/>
      <use xlink:href="#DejaVuSans-62" x="595.214844"/>
      <use xlink:href="#DejaVuSans-75" x="658.691406"/>
      <use xlink:href="#DejaVuSans-74" x="722.070312"/>
      <use xlink:href="#DejaVuSans-69" x="761.279297"/>
      <use xlink:href="#DejaVuSans-6f" x="789.0625"/>
      <use xlink:href="#DejaVuSans-6e" x="850.244141"/>
     </g>
    </g>
    <g id="line2d_46">
     <path d="M 3611.805423 2819.449375 
L 3655.805423 2819.449375 
L 3699.805423 2819.449375 
" style="fill: none; stroke-dasharray: 11.1,4.8; stroke-dashoffset: 0; stroke: #ff0000; stroke-width: 3"/>
    </g>
    <g id="text_50">
     <!-- Dist under null hypothesis -->
     <g transform="translate(3735.005423 2834.849375) scale(0.44 -0.44)">
      <defs>
       <path id="DejaVuSans-44" d="M 1259 4147 
L 1259 519 
L 2022 519 
Q 2988 519 3436 956 
Q 3884 1394 3884 2338 
Q 3884 3275 3436 3711 
Q 2988 4147 2022 4147 
L 1259 4147 
z
M 628 4666 
L 1925 4666 
Q 3281 4666 3915 4102 
Q 4550 3538 4550 2338 
Q 4550 1131 3912 565 
Q 3275 0 1925 0 
L 628 0 
L 628 4666 
z
" transform="scale(0.015625)"/>
       <path id="DejaVuSans-6c" d="M 603 4863 
L 1178 4863 
L 1178 0 
L 603 0 
L 603 4863 
z
" transform="scale(0.015625)"/>
       <path id="DejaVuSans-68" d="M 3513 2113 
L 3513 0 
L 2938 0 
L 2938 2094 
Q 2938 2591 2744 2837 
Q 2550 3084 2163 3084 
Q 1697 3084 1428 2787 
Q 1159 2491 1159 1978 
L 1159 0 
L 581 0 
L 581 4863 
L 1159 4863 
L 1159 2956 
Q 1366 3272 1645 3428 
Q 1925 3584 2291 3584 
Q 2894 3584 3203 3211 
Q 3513 2838 3513 2113 
z
" transform="scale(0.015625)"/>
       <path id="DejaVuSans-79" d="M 2059 -325 
Q 1816 -950 1584 -1140 
Q 1353 -1331 966 -1331 
L 506 -1331 
L 506 -850 
L 844 -850 
Q 1081 -850 1212 -737 
Q 1344 -625 1503 -206 
L 1606 56 
L 191 3500 
L 800 3500 
L 1894 763 
L 2988 3500 
L 3597 3500 
L 2059 -325 
z
" transform="scale(0.015625)"/>
      </defs>
      <use xlink:href="#DejaVuSans-44"/>
      <use xlink:href="#DejaVuSans-69" x="77.001953"/>
      <use xlink:href="#DejaVuSans-73" x="104.785156"/>
      <use xlink:href="#DejaVuSans-74" x="156.884766"/>
      <use xlink:href="#DejaVuSans-20" x="196.09375"/>
      <use xlink:href="#DejaVuSans-75" x="227.880859"/>
      <use xlink:href="#DejaVuSans-6e" x="291.259766"/>
      <use xlink:href="#DejaVuSans-64" x="354.638672"/>
      <use xlink:href="#DejaVuSans-65" x="418.115234"/>
      <use xlink:href="#DejaVuSans-72" x="479.638672"/>
      <use xlink:href="#DejaVuSans-20" x="520.751953"/>
      <use xlink:href="#DejaVuSans-6e" x="552.539062"/>
      <use xlink:href="#DejaVuSans-75" x="615.917969"/>
      <use xlink:href="#DejaVuSans-6c" x="679.296875"/>
      <use xlink:href="#DejaVuSans-6c" x="707.080078"/>
      <use xlink:href="#DejaVuSans-20" x="734.863281"/>
      <use xlink:href="#DejaVuSans-68" x="766.650391"/>
      <use xlink:href="#DejaVuSans-79" x="830.029297"/>
      <use xlink:href="#DejaVuSans-70" x="889.208984"/>
      <use xlink:href="#DejaVuSans-6f" x="952.685547"/>
      <use xlink:href="#DejaVuSans-74" x="1013.867188"/>
      <use xlink:href="#DejaVuSans-68" x="1053.076172"/>
      <use xlink:href="#DejaVuSans-65" x="1116.455078"/>
      <use xlink:href="#DejaVuSans-73" x="1177.978516"/>
      <use xlink:href="#DejaVuSans-69" x="1230.078125"/>
      <use xlink:href="#DejaVuSans-73" x="1257.861328"/>
     </g>
    </g>
   </g>
  </g>
  <g id="text_51">
   <!-- Density -->
   <g transform="translate(134.233125 1703.637813) rotate(-90) scale(0.44 -0.44)">
    <use xlink:href="#DejaVuSans-44"/>
    <use xlink:href="#DejaVuSans-65" x="77.001953"/>
    <use xlink:href="#DejaVuSans-6e" x="138.525391"/>
    <use xlink:href="#DejaVuSans-73" x="201.904297"/>
    <use xlink:href="#DejaVuSans-69" x="254.003906"/>
    <use xlink:href="#DejaVuSans-74" x="281.787109"/>
    <use xlink:href="#DejaVuSans-79" x="320.996094"/>
   </g>
  </g>
  <g id="text_52">
   <!-- QC-FC correlation distributions -->
   <g transform="translate(2167.176406 99.752813) scale(0.46 -0.46)">
    <use xlink:href="#DejaVuSans-51"/>
    <use xlink:href="#DejaVuSans-43" x="78.710938"/>
    <use xlink:href="#DejaVuSans-2d" x="148.535156"/>
    <use xlink:href="#DejaVuSans-46" x="184.619141"/>
    <use xlink:href="#DejaVuSans-43" x="242.138672"/>
    <use xlink:href="#DejaVuSans-20" x="311.962891"/>
    <use xlink:href="#DejaVuSans-63" x="343.75"/>
    <use xlink:href="#DejaVuSans-6f" x="398.730469"/>
    <use xlink:href="#DejaVuSans-72" x="459.912109"/>
    <use xlink:href="#DejaVuSans-72" x="499.275391"/>
    <use xlink:href="#DejaVuSans-65" x="538.138672"/>
    <use xlink:href="#DejaVuSans-6c" x="599.662109"/>
    <use xlink:href="#DejaVuSans-61" x="627.445312"/>
    <use xlink:href="#DejaVuSans-74" x="688.724609"/>
    <use xlink:href="#DejaVuSans-69" x="727.933594"/>
    <use xlink:href="#DejaVuSans-6f" x="755.716797"/>
    <use xlink:href="#DejaVuSans-6e" x="816.898438"/>
    <use xlink:href="#DejaVuSans-20" x="880.277344"/>
    <use xlink:href="#DejaVuSans-64" x="912.064453"/>
    <use xlink:href="#DejaVuSans-69" x="975.541016"/>
    <use xlink:href="#DejaVuSans-73" x="1003.324219"/>
    <use xlink:href="#DejaVuSans-74" x="1055.423828"/>
    <use xlink:href="#DejaVuSans-72" x="1094.632812"/>
    <use xlink:href="#DejaVuSans-69" x="1135.746094"/>
    <use xlink:href="#DejaVuSans-62" x="1163.529297"/>
    <use xlink:href="#DejaVuSans-75" x="1227.005859"/>
    <use xlink:href="#DejaVuSans-74" x="1290.384766"/>
    <use xlink:href="#DejaVuSans-69" x="1329.59375"/>
    <use xlink:href="#DejaVuSans-6f" x="1357.376953"/>
    <use xlink:href="#DejaVuSans-6e" x="1418.558594"/>
    <use xlink:href="#DejaVuSans-73" x="1481.9375"/>
   </g>
  </g>
 </g>
 <defs>
  <clipPath id="pe0a77ac161">
   <rect x="630" y="388.8" width="1148.823529" height="2494.8"/>
  </clipPath>
  <clipPath id="pfd1d23b898">
   <rect x="2008.588235" y="388.8" width="1148.823529" height="2494.8"/>
  </clipPath>
  <clipPath id="pbc3589a1fe">
   <rect x="3387.176471" y="388.8" width="1148.823529" height="2494.8"/>
  </clipPath>
 </defs>
</svg>